<?xml version="1.0" encoding="UTF-8"?>
<svg id="texte" xmlns="http://www.w3.org/2000/svg" xmlns:xlink="http://www.w3.org/1999/xlink" version="1.1" viewBox="0 0 1093.3 722.8">
  <!-- Generator: Adobe Illustrator 29.2.1, SVG Export Plug-In . SVG Version: 2.1.0 Build 116)  -->
  <defs>
    <style>
      .st0 {
        fill: none;
      }

      .st1, .st2 {
        fill: #20221d;
      }

      .st3 {
        fill: #00539f;
      }

      .st4, .st5 {
        fill: #fff;
      }

      .st4, .st2 {
        fill-rule: evenodd;
      }

      .st6 {
        fill: url(#Dégradé_sans_nom_8);
      }

      .st7 {
        fill: #373d7e;
      }

      .st8 {
        fill: #bf2f38;
      }

      .st9 {
        fill: #006bb6;
      }

      .st10 {
        fill: #4a8b2c;
      }

      .st11 {
        fill: #51bcdb;
      }

      .st12 {
        fill: #221f20;
      }

      .st13 {
        fill: #009bda;
      }

      .st14 {
        fill: #1a4279;
      }

      .st15 {
        fill: #3c3c7e;
      }

      .st16 {
        clip-path: url(#clippath);
      }

      .st17 {
        fill: #34a548;
      }

      .st18 {
        fill: #0075c9;
      }
    </style>
    <linearGradient id="Dégradé_sans_nom_8" data-name="Dégradé sans nom 8" x1="642.7" y1="438.7" x2="399.5" y2="438.7" gradientUnits="userSpaceOnUse">
      <stop offset="0" stop-color="#fff" stop-opacity="0"/>
      <stop offset="1" stop-color="#009bda" stop-opacity=".5"/>
    </linearGradient>
    <clipPath id="clippath">
      <rect class="st0" x="426.4" y="426.2" width="177.3" height="26.1"/>
    </clipPath>
  </defs>
  <g>
    <path class="st6" d="M427,411.2h215.7v55.1h-215.7c-15.2,0-27.5-12.3-27.5-27.5h0c0-15.2,12.3-27.5,27.5-27.5Z"/>
    <g>
      <path class="st17" d="M191.7,296.8c50.4,0,91.2-40.8,91.2-91.2s-40.8-91.2-91.2-91.2-91.2,40.8-91.2,91.2,40.8,91.2,91.2,91.2"/>
      <path class="st13" d="M356.3,296.4c50.4,0,91.2-40.8,91.2-91.2s-40.8-91.2-91.2-91.2-91.2,40.8-91.2,91.2,40.8,91.2,91.2,91.2"/>
      <path class="st14" d="M519.6,296.8c50.4,0,91.2-40.8,91.2-91.2s-40.8-91.2-91.2-91.2-91.2,40.8-91.2,91.2,40.8,91.2,91.2,91.2"/>
      <path class="st14" d="M979.7,215.8c5.8,0,10.5-4.7,10.5-10.5s-4.7-10.5-10.5-10.5-10.5,4.7-10.5,10.5,4.7,10.5,10.5,10.5"/>
      <path class="st14" d="M951.8,215.8c5.8,0,10.5-4.7,10.5-10.5s-4.7-10.5-10.5-10.5-10.5,4.7-10.5,10.5,4.7,10.5,10.5,10.5"/>
      <path class="st14" d="M923.9,215.8c5.8,0,10.5-4.7,10.5-10.5s-4.7-10.5-10.5-10.5-10.5,4.7-10.5,10.5,4.7,10.5,10.5,10.5"/>
      <path class="st14" d="M895.9,215.8c5.8,0,10.5-4.7,10.5-10.5s-4.7-10.5-10.5-10.5-10.5,4.7-10.5,10.5,4.7,10.5,10.5,10.5"/>
      <path class="st13" d="M868,215.8c5.8,0,10.5-4.7,10.5-10.5s-4.7-10.5-10.5-10.5-10.5,4.7-10.5,10.5,4.7,10.5,10.5,10.5"/>
      <path class="st14" d="M840.1,215.8c5.8,0,10.5-4.7,10.5-10.5s-4.7-10.5-10.5-10.5-10.5,4.7-10.5,10.5,4.7,10.5,10.5,10.5"/>
      <path class="st17" d="M812.2,215.8c5.8,0,10.5-4.7,10.5-10.5s-4.7-10.5-10.5-10.5-10.5,4.7-10.5,10.5,4.7,10.5,10.5,10.5"/>
      <path class="st14" d="M785.1,215.8c5.8,0,10.5-4.7,10.5-10.5s-4.7-10.5-10.5-10.5-10.5,4.7-10.5,10.5,4.7,10.5,10.5,10.5"/>
      <path class="st13" d="M750.6,226.3c5.8,0,10.5-4.7,10.5-10.5s-4.7-10.5-10.5-10.5-10.5,4.7-10.5,10.5,4.7,10.5,10.5,10.5"/>
      <path class="st14" d="M730,196.4c5.8,0,10.5-4.7,10.5-10.5s-4.7-10.5-10.5-10.5-10.5,4.7-10.5,10.5,4.7,10.5,10.5,10.5"/>
      <path class="st13" d="M699.3,221.7c5.8,0,10.5-4.7,10.5-10.5s-4.7-10.5-10.5-10.5-10.5,4.7-10.5,10.5,4.7,10.5,10.5,10.5"/>
      <path class="st14" d="M659.9,208.1c5.8,0,10.5-4.7,10.5-10.5s-4.7-10.5-10.5-10.5-10.5,4.7-10.5,10.5,4.7,10.5,10.5,10.5"/>
      <path class="st14" d="M951.8,190.2c5.8,0,10.5-4.7,10.5-10.5s-4.7-10.5-10.5-10.5-10.5,4.7-10.5,10.5,4.7,10.5,10.5,10.5"/>
      <path class="st14" d="M923.9,190.2c5.8,0,10.5-4.7,10.5-10.5s-4.7-10.5-10.5-10.5-10.5,4.7-10.5,10.5,4.7,10.5,10.5,10.5"/>
      <path class="st14" d="M895.9,190.2c5.8,0,10.5-4.7,10.5-10.5s-4.7-10.5-10.5-10.5-10.5,4.7-10.5,10.5,4.7,10.5,10.5,10.5"/>
      <path class="st14" d="M868,190.2c5.8,0,10.5-4.7,10.5-10.5s-4.7-10.5-10.5-10.5-10.5,4.7-10.5,10.5,4.7,10.5,10.5,10.5"/>
      <path class="st17" d="M840.1,190.2c5.8,0,10.5-4.7,10.5-10.5s-4.7-10.5-10.5-10.5-10.5,4.7-10.5,10.5,4.7,10.5,10.5,10.5"/>
      <path class="st13" d="M785.1,190.2c5.8,0,10.5-4.7,10.5-10.5s-4.7-10.5-10.5-10.5-10.5,4.7-10.5,10.5,4.7,10.5,10.5,10.5"/>
      <path class="st7" d="M757.9,190.2c5.8,0,10.5-4.7,10.5-10.5s-4.7-10.5-10.5-10.5-10.5,4.7-10.5,10.5,4.7,10.5,10.5,10.5"/>
      <path class="st17" d="M699.3,180.4c5.8,0,10.5-4.7,10.5-10.5s-4.7-10.5-10.5-10.5-10.5,4.7-10.5,10.5,4.7,10.5,10.5,10.5"/>
      <path class="st14" d="M923.9,164.7c5.8,0,10.5-4.7,10.5-10.5s-4.7-10.5-10.5-10.5-10.5,4.7-10.5,10.5,4.7,10.5,10.5,10.5"/>
      <path class="st14" d="M895.9,164.7c5.8,0,10.5-4.7,10.5-10.5s-4.7-10.5-10.5-10.5-10.5,4.7-10.5,10.5,4.7,10.5,10.5,10.5"/>
      <path class="st14" d="M868,164.7c5.8,0,10.5-4.7,10.5-10.5s-4.7-10.5-10.5-10.5-10.5,4.7-10.5,10.5,4.7,10.5,10.5,10.5"/>
      <path class="st14" d="M840.1,164.7c5.8,0,10.5-4.7,10.5-10.5s-4.7-10.5-10.5-10.5-10.5,4.7-10.5,10.5,4.7,10.5,10.5,10.5"/>
      <path class="st17" d="M812.2,164.7c5.8,0,10.5-4.7,10.5-10.5s-4.7-10.5-10.5-10.5-10.5,4.7-10.5,10.5,4.7,10.5,10.5,10.5"/>
      <path class="st14" d="M785.1,164.7c5.8,0,10.5-4.7,10.5-10.5s-4.7-10.5-10.5-10.5-10.5,4.7-10.5,10.5,4.7,10.5,10.5,10.5"/>
      <path class="st14" d="M740.1,151.4c5.8,0,10.5-4.7,10.5-10.5s-4.7-10.5-10.5-10.5-10.5,4.7-10.5,10.5,4.7,10.5,10.5,10.5"/>
      <path class="st13" d="M670.4,143.7c5.8,0,10.5-4.7,10.5-10.5s-4.7-10.5-10.5-10.5-10.5,4.7-10.5,10.5,4.7,10.5,10.5,10.5"/>
      <path class="st14" d="M895.9,139.2c5.8,0,10.5-4.7,10.5-10.5s-4.7-10.5-10.5-10.5-10.5,4.7-10.5,10.5,4.7,10.5,10.5,10.5"/>
      <path class="st14" d="M868,139.2c5.8,0,10.5-4.7,10.5-10.5s-4.7-10.5-10.5-10.5-10.5,4.7-10.5,10.5,4.7,10.5,10.5,10.5"/>
      <path class="st14" d="M868,113.7c5.8,0,10.5-4.7,10.5-10.5s-4.7-10.5-10.5-10.5-10.5,4.7-10.5,10.5,4.7,10.5,10.5,10.5"/>
      <path class="st14" d="M951.8,241.3c5.8,0,10.5-4.7,10.5-10.5s-4.7-10.5-10.5-10.5-10.5,4.7-10.5,10.5,4.7,10.5,10.5,10.5"/>
      <path class="st14" d="M923.9,241.3c5.8,0,10.5-4.7,10.5-10.5s-4.7-10.5-10.5-10.5-10.5,4.7-10.5,10.5,4.7,10.5,10.5,10.5"/>
      <path class="st14" d="M895.9,241.3c5.8,0,10.5-4.7,10.5-10.5s-4.7-10.5-10.5-10.5-10.5,4.7-10.5,10.5,4.7,10.5,10.5,10.5"/>
      <path class="st14" d="M868,241.3c5.8,0,10.5-4.7,10.5-10.5s-4.7-10.5-10.5-10.5-10.5,4.7-10.5,10.5,4.7,10.5,10.5,10.5"/>
      <path class="st13" d="M812.2,241.3c5.8,0,10.5-4.7,10.5-10.5s-4.7-10.5-10.5-10.5-10.5,4.7-10.5,10.5,4.7,10.5,10.5,10.5"/>
      <path class="st17" d="M785.1,241.3c5.8,0,10.5-4.7,10.5-10.5s-4.7-10.5-10.5-10.5-10.5,4.7-10.5,10.5,4.7,10.5,10.5,10.5"/>
      <path class="st14" d="M729.6,254.8c5.8,0,10.5-4.7,10.5-10.5s-4.7-10.5-10.5-10.5-10.5,4.7-10.5,10.5,4.7,10.5,10.5,10.5"/>
      <path class="st13" d="M638.9,169.3c5.8,0,10.5-4.7,10.5-10.5s-4.7-10.5-10.5-10.5-10.5,4.7-10.5,10.5,4.7,10.5,10.5,10.5"/>
      <path class="st14" d="M638.9,251.8c5.8,0,10.5-4.7,10.5-10.5s-4.7-10.5-10.5-10.5-10.5,4.7-10.5,10.5,4.7,10.5,10.5,10.5"/>
      <path class="st14" d="M923.9,266.8c5.8,0,10.5-4.7,10.5-10.5s-4.7-10.5-10.5-10.5-10.5,4.7-10.5,10.5,4.7,10.5,10.5,10.5"/>
      <path class="st14" d="M895.9,266.8c5.8,0,10.5-4.7,10.5-10.5s-4.7-10.5-10.5-10.5-10.5,4.7-10.5,10.5,4.7,10.5,10.5,10.5"/>
      <path class="st14" d="M868,266.8c5.8,0,10.5-4.7,10.5-10.5s-4.7-10.5-10.5-10.5-10.5,4.7-10.5,10.5,4.7,10.5,10.5,10.5"/>
      <path class="st13" d="M840.1,266.8c5.8,0,10.5-4.7,10.5-10.5s-4.7-10.5-10.5-10.5-10.5,4.7-10.5,10.5,4.7,10.5,10.5,10.5"/>
      <path class="st14" d="M812.2,266.8c5.8,0,10.5-4.7,10.5-10.5s-4.7-10.5-10.5-10.5-10.5,4.7-10.5,10.5,4.7,10.5,10.5,10.5"/>
      <path class="st14" d="M785.1,266.8c5.8,0,10.5-4.7,10.5-10.5s-4.7-10.5-10.5-10.5-10.5,4.7-10.5,10.5,4.7,10.5,10.5,10.5"/>
      <path class="st13" d="M757.9,277.3c5.8,0,10.5-4.7,10.5-10.5s-4.7-10.5-10.5-10.5-10.5,4.7-10.5,10.5,4.7,10.5,10.5,10.5"/>
      <path class="st13" d="M688.8,272.8c5.8,0,10.5-4.7,10.5-10.5s-4.7-10.5-10.5-10.5-10.5,4.7-10.5,10.5,4.7,10.5,10.5,10.5"/>
      <path class="st17" d="M625.8,292.3c5.8,0,10.5-4.7,10.5-10.5s-4.7-10.5-10.5-10.5-10.5,4.7-10.5,10.5,4.7,10.5,10.5,10.5"/>
      <path class="st14" d="M895.9,292.3c5.8,0,10.5-4.7,10.5-10.5s-4.7-10.5-10.5-10.5-10.5,4.7-10.5,10.5,4.7,10.5,10.5,10.5"/>
      <path class="st14" d="M868,292.3c5.8,0,10.5-4.7,10.5-10.5s-4.7-10.5-10.5-10.5-10.5,4.7-10.5,10.5,4.7,10.5,10.5,10.5"/>
      <path class="st14" d="M868,317.8c5.8,0,10.5-4.7,10.5-10.5s-4.7-10.5-10.5-10.5-10.5,4.7-10.5,10.5,4.7,10.5,10.5,10.5"/>
      <path class="st17" d="M625.8,124.9c5.8,0,10.5-4.7,10.5-10.5s-4.7-10.5-10.5-10.5-10.5,4.7-10.5,10.5,4.7,10.5,10.5,10.5"/>
      <path class="st14" d="M497.3,352.3h-2.9v25.6h2.8v-21.5c0,0,15.1,21.5,15.1,21.5h2.8v-25.6h-2.8v21.4s-15-21.4-15-21.4ZM466.3,365.1c0-5.9,4.5-10.7,10.5-10.7s10.5,4.9,10.5,10.7-4.4,10.7-10.5,10.7-10.5-4.7-10.5-10.7h0ZM463.4,365.2c0,7.3,5.8,13.1,13.3,13.1s13.3-5.7,13.3-13.2-5.8-13.2-13.3-13.2-13.3,5.4-13.3,13.3h0ZM456.3,377.9h2.8v-25.6h-2.8v25.6ZM444,377.9h2.9v-23.1h6.3v-2.5h-15.5v2.5h6.3v23.1ZM432.5,368.4h-10.2l5.1-12.8,5.1,12.8ZM421.4,370.7h11.9l3,7.2h3.1l-10.6-25.6h-2.8l-10.7,25.6h3.1l2.9-7.2ZM394.5,352.3h-2.9v25.6h2.8v-21.5c0,0,15.1,21.5,15.1,21.5h2.8v-25.6h-2.8v21.4s-15-21.4-15-21.4ZM383.3,377.9h2.8v-25.6h-2.8v25.6ZM370.9,377.9h2.9v-23.1h6.3v-2.5h-15.5v2.5h6.3v23.1ZM346.8,370.8c.2,4.9,3.7,7.6,8,7.6s7.9-3.3,7.9-7.5-3.8-6.1-6.2-7c-3.9-1.3-6.4-2.1-6.4-5.2,0-2.7,2.1-4.4,4.7-4.4s4.2,2.5,4.5,4.2h2.8c-.4-4.8-4.1-6.6-7.3-6.6s-7.7,2.5-7.6,7c0,4.8,4.5,6.2,6.5,6.8,3,1,6.1,1.8,6.1,5.4s-2.5,4.9-5.1,4.9-4.7-.9-5.1-5.2h-2.9ZM329,377.9h14.2v-2.5h-11.3v-9.1h11.3v-2.5h-11.3v-8.9h11.3v-2.5h-14.2v25.6ZM306.8,354.8h5.1c3.5,0,5.9,1.1,7.5,2.9,1.7,1.9,2.5,4.5,2.5,7.5,0,6.2-3.4,10.2-10,10.2h-5.1v-20.5ZM304,377.9h7.8c8.6,0,13-5.1,13-12.8s-1-6.6-3.1-8.9c-2.6-3-6.4-3.8-10.1-3.8h-7.6v25.6ZM291.7,369.5h9.4v-2.5h-9.4v2.5ZM275.2,377.9h14.2v-2.5h-11.3v-9.1h11.3v-2.5h-11.3v-8.9h11.3v-2.5h-14.2v25.6ZM252,352.3h-2.9v25.6h2.8v-21.5c0,0,15.1,21.5,15.1,21.5h2.8v-25.6h-2.8v21.4s-15-21.4-15-21.4ZM240.8,377.9h2.8v-25.6h-2.8v25.6ZM235.1,359c-2-4.2-6.8-7.1-12-7.1-7.4,0-13.4,5.5-13.4,13.2s5.9,13.3,13.4,13.3,10.3-2.8,12.5-7.6c.8-1.6,1.1-3.5,1.1-4.9h-16v2.3h12.7c-.4,2-1.7,3.9-3.5,5.4-1.8,1.4-4.1,2.3-6.8,2.3-5.6,0-10.5-4.3-10.5-10.8s4.9-10.7,10.5-10.7,4.3.7,5.9,1.8c1.1.7,2.1,1.7,2.9,2.8h3.3ZM202.6,377.9h2.8v-25.6h-2.8v25.6ZM181.7,377.9h2.9v-23.1h4c2.3,0,3.9.1,5.2.9,1.6,1,2.5,3,2.5,4.9s-.6,3.4-1.9,4.7c-1.4,1.3-3.9,1.3-5.7,1.3h-.8l7.2,11.2h3.1l-6.4-9.6c2.3-.2,4.2-.7,5.7-2.8,1.1-1.5,1.6-3.3,1.5-5,0-2.9-1.4-5.6-3.5-6.9-1.3-.8-3.2-1.3-7.2-1.3h-6.7v25.6ZM153.9,365.1c0-5.9,4.5-10.7,10.5-10.7s10.5,4.9,10.5,10.7-4.4,10.7-10.5,10.7-10.5-4.7-10.5-10.7h0ZM151,365.2c0,7.3,5.8,13.1,13.3,13.1s13.3-5.7,13.3-13.2-5.8-13.2-13.3-13.2-13.3,5.4-13.3,13.3h0Z"/>
      <path class="st14" d="M285.7,343.3h14.2v-2.5h-11.3v-9.1h11.3v-2.5h-11.3v-8.9h11.3v-2.5h-14.2v25.6ZM273.4,343.3h2.9v-23.1h6.3v-2.5h-15.5v2.5h6.3v23.1ZM258.1,310.9h-1.9l-6.1,4.6h2.9l4.1-2.8,4.1,2.8h2.9l-6-4.6ZM250.4,343.3h14.2v-2.5h-11.3v-9.1h11.3v-2.5h-11.3v-8.9h11.3v-2.5h-14.2v25.6ZM228,317.8v16.2c0,2.8.2,5.7,2.9,7.9,1.6,1.4,3.8,1.9,5.6,1.9s4.1-.7,5.5-1.9c2.6-2,2.9-4.9,2.9-7.9v-16.2h-2.8v16.2c0,2,0,3.5-1.2,5.2-.9,1.3-2.6,2.1-4.4,2.1s-3.6-.9-4.5-2.1c-1.2-1.7-1.2-3.2-1.2-5.2v-16.2h-2.9ZM209.9,341.3c-2.3,0-7.1-.9-9.5-6,1.1-.4,2.3-.9,4.4-.9s4.9.7,7.2,2.3c.2.2,2.8,2.3,3.5,2.9-1,.8-3.1,1.7-5.6,1.7h0ZM209.8,319.8c5.8,0,10.5,4.4,10.5,10.6s-1,5.5-3.1,7.4c-3.4-2.7-4-3.3-5.3-4-2.1-1.2-4.4-1.8-6.9-1.8s-4,.6-5.2.9c-.2-.7-.4-1.7-.4-3.2.3-5.8,4.8-9.9,10.3-9.9h0ZM225,341.4c-2.5-.3-3.9-.7-5.5-1.7,1.1-1.3,3.6-4,3.6-9.2,0-7.3-5.7-13.2-13.4-13.2s-13.3,5.9-13.3,13.3,5.2,13.2,13.4,13.2,5.8-1.2,7.7-2.4c1.3.9,2.7,1.8,5.4,2.1.6.1,1.3.2,2.1.2v-2.4ZM174.2,317.8h-2.9v25.6h2.8v-21.5c0,0,15.1,21.5,15.1,21.5h2.8v-25.6h-2.8v21.4s-15-21.4-15-21.4ZM152.2,343.3h14.2v-2.5h-11.3v-9.1h11.3v-2.5h-11.3v-8.9h11.3v-2.5h-14.2v25.6Z"/>
      <path class="st5" d="M153.3,253.5h76.9c1.2,0,2-.8,2-2v-4.3c0-1.2-.8-2-2-2h-70.4v-36.6h49.7c1.2,0,2-.8,2-2v-4.2c0-1.2-.8-2-2-2h-49.7v-34.1h70.4c1.2,0,2-.8,2-2v-4.3c0-1.2-.8-2-2-2h-76.9c-1.2,0-2,.8-2,2v91.7c0,1.2.8,2,2,2"/>
      <path class="st5" d="M339.6,244.7c-17.5,0-23.6-6-23.6-24.4v-30c0-18.6,6.1-24.6,23.6-24.6h33.4c17.6,0,23.6,6,23.6,24.6v30c0,18.5-6.1,24.4-23.6,24.4h-33.4ZM339.6,253.2h33.4c24,0,32.2-11.3,32.2-33v-29.7c0-21.8-8.1-33.1-32.2-33.1h-33.4c-24,0-32.2,11.3-32.2,33.1v29.7c0,21.7,8.1,33,32.2,33"/>
      <path class="st5" d="M485.8,245.1v-79h51.8c18.3,0,24,6.1,24,27.5v24.4c0,21.2-5.7,27-24,27h-51.8ZM479.3,253.5h58.9c23.7,0,32-10,32-35.4v-24.4c0-25.5-8.3-36-32-36h-58.9c-1.2,0-2,.8-2,2v91.7c0,1.2.8,2,2,2"/>
      <g class="st16">
        <path class="st14" d="M592.7,451.9h2.8v-8.9l8.1-16.4h-3.1l-6.4,13.6-6.5-13.6h-3.1l8.1,16.4v8.9ZM579.9,442.5h-10.1l5-12.6,5,12.6ZM569,444.8h11.8l2.9,7.1h3.1l-10.4-25.2h-2.7l-10.5,25.2h3l2.9-7.1ZM542.5,426.6h-2.9v25.2h2.7v-21.2c0,0,14.9,21.2,14.9,21.2h2.7v-25.2h-2.7v21.1s-14.7-21.1-14.7-21.1ZM520.8,451.9h14v-2.5h-11.2v-9h11.1v-2.5h-11.1v-8.8h11.2v-2.5h-14v25.2ZM498.8,426.6v16c0,2.8.2,5.6,2.9,7.8,1.6,1.4,3.8,1.9,5.6,1.9s4.1-.7,5.5-1.9c2.5-1.9,2.9-4.8,2.9-7.8v-16h-2.8v16c0,2,0,3.4-1.2,5.1-.9,1.3-2.5,2.1-4.3,2.1s-3.5-.9-4.4-2.1c-1.2-1.7-1.2-3.2-1.2-5.1v-16h-2.8ZM493.3,433.2c-2-4.1-6.7-7-11.8-7-7.3,0-13.2,5.4-13.2,13s5.8,13.1,13.2,13.1,10.1-2.8,12.3-7.5c.7-1.6,1.1-3.4,1.1-4.9h-15.8v2.3h12.5c-.4,2-1.6,3.9-3.4,5.3-1.7,1.4-4.1,2.3-6.7,2.3-5.5,0-10.4-4.2-10.4-10.6s4.8-10.5,10.3-10.5,4.2.6,5.9,1.8c1.1.7,2,1.6,2.8,2.7h3.2ZM460.8,442.5h-10.1l5-12.6,5,12.6ZM449.9,444.8h11.8l2.9,7.1h3.1l-10.4-25.2h-2.7l-10.5,25.2h3l2.9-7.1ZM426.4,444.8c.2,4.8,3.7,7.5,7.9,7.5s7.8-3.3,7.8-7.4-3.7-6-6.1-6.9c-3.8-1.3-6.3-2-6.3-5.1,0-2.6,2.1-4.3,4.6-4.3s4.2,2.5,4.5,4.1h2.8c-.4-4.8-4-6.5-7.2-6.5s-7.6,2.5-7.5,6.9c0,4.8,4.4,6.1,6.4,6.7,2.9,1,6,1.7,6,5.3s-2.4,4.8-5,4.8-4.6-.9-5-5.1h-2.8Z"/>
      </g>
    </g>
  </g>
  <g id="Logo_VG_couleurs">
    <g id="Logo_VG_couleurs1" data-name="Logo_VG_couleurs">
      <g>
        <path class="st15" d="M187.2,598.6s11.9-16.2,0-28.6c-11.9,12.4,0,28.6,0,28.6h0Z"/>
        <path class="st11" d="M98.4,578.5c.3-.2.6-.3,1-.3.5,0,1,.2,1.4.6.4.4.6.8.6,1.4s0,.6-.2.9l-7.4,16.2c-.2.4-.5.8-.9,1-.4.2-.8.4-1.3.4s-.9-.1-1.3-.4c-.4-.2-.7-.6-.9-1l-7.4-16.2c-.1-.3-.2-.5-.2-.8,0-.6.2-1,.7-1.4.4-.4.9-.6,1.5-.6s.7.1,1,.3c.3.2.5.5.7.9l5.9,13.3,6-13.3c.2-.4.4-.7.7-.9Z"/>
        <g>
          <g>
            <path class="st11" d="M103.3,597.9c-1-.6-1.8-1.3-2.4-2.3-.6-1-.8-2.2-.8-3.6s.3-2.6.8-3.6c.6-1,1.4-1.8,2.4-2.3,1-.5,2.2-.8,3.6-.8s2.6.3,3.6.8c1,.5,1.8,1.3,2.4,2.3.6,1,.8,2.2.8,3.6s-.3,2.6-.8,3.6c-.6,1-1.4,1.8-2.4,2.3-1,.6-2.2.8-3.6.8s-2.6-.3-3.6-.8ZM109.8,591.9c0-1.2-.2-2.2-.8-2.8-.5-.6-1.2-.9-2.2-.9-1.9,0-2.9,1.2-2.9,3.7s1,3.7,2.9,3.7,2.9-1.2,2.9-3.7Z"/>
            <path class="st11" d="M125,596.1c.2.2.4.6.4,1s-.2.9-.6,1.2c-.4.3-1,.4-1.7.3h-.7c-3.1-.3-4.6-1.9-4.6-4.9v-5.2h-1.1c-.6,0-1-.1-1.3-.4-.3-.3-.4-.6-.4-1.1s.2-.9.4-1.1c.3-.3.7-.4,1.3-.4h1.1v-2.1c0-.6.2-1,.5-1.4.4-.3.8-.5,1.5-.5s1.1.2,1.5.5c.4.3.5.8.5,1.4v2.1h1.8c1.2,0,1.8.5,1.8,1.5s-.2.8-.4,1.1c-.3.3-.7.4-1.3.4h-1.8v5.5c0,.5.1.9.4,1.2.2.3.6.4,1.1.5h.7c.5,0,.9.2,1.2.4Z"/>
            <path class="st11" d="M136.4,585.6c.3.3.5.7.5,1.2s-.1,1-.4,1.3c-.3.3-.8.5-1.5.5h-.8c-1,.2-1.7.5-2.1,1-.4.5-.6,1.2-.6,2v5c0,.6-.2,1.1-.6,1.4-.4.3-.8.5-1.4.5s-1.1-.2-1.4-.5c-.4-.3-.6-.8-.6-1.4v-9.7c0-.6.2-1,.6-1.3.4-.3.9-.5,1.4-.5s1,.2,1.3.5c.4.3.5.7.5,1.3v.7c.3-.8.8-1.3,1.4-1.7.6-.4,1.3-.6,2.1-.7h.4c.5,0,.9,0,1.3.3Z"/>
            <path class="st11" d="M149.5,595.1c.2.3.3.6.3,1.1s0,.6-.3.8-.4.5-.7.6c-.6.3-1.3.6-2.1.8-.8.2-1.5.3-2.2.3-1.4,0-2.6-.3-3.7-.8-1-.5-1.9-1.3-2.4-2.3-.6-1-.8-2.2-.8-3.6s.3-2.5.8-3.5c.5-1,1.3-1.8,2.3-2.4,1-.6,2.1-.9,3.3-.9s2.2.3,3.1.8c.9.5,1.6,1.3,2.1,2.2.5,1,.7,2.1.7,3.4s0,.7-.3.9c-.2.2-.4.3-.8.3h-7.4c.1,1,.4,1.8.9,2.3.5.5,1.2.7,2.2.7s1,0,1.4-.2c.4-.1.9-.3,1.3-.5.2-.1.5-.2.7-.3.2,0,.4-.1.6-.1.4,0,.6.1.9.4ZM142.3,588.7c-.5.5-.7,1.2-.8,2.1h5.1c0-.9-.3-1.6-.7-2.1-.4-.5-1-.7-1.8-.7s-1.4.2-1.8.7Z"/>
          </g>
          <g>
            <path class="st11" d="M190.9,600.5s7.2-18.7,13.5-7.2l-4.2,5.3s-3.2-5.1-9.3,1.9Z"/>
            <path class="st11" d="M183.6,600.5s-7.2-18.7-13.7-7.2l4.2,5.3s3.4-5,9.5,2Z"/>
          </g>
          <g>
            <path class="st15" d="M97.7,603.3c.2.2.4.6.4.9v10.8c0,2-.5,3.5-1.6,4.5-1,1-2.6,1.5-4.6,1.5s-3.5-.4-4.7-1.1c-.7-.4-1-.8-1-1.3s0-.5.2-.7c.2-.2.4-.3.6-.3s.6.1,1.1.4c.6.3,1.2.5,1.8.7.5.2,1.2.3,2,.3,2.4,0,3.6-1.2,3.6-3.7v-2c-.4.8-.9,1.4-1.7,1.8-.8.4-1.6.6-2.6.6s-2.1-.3-3-.8c-.9-.5-1.6-1.3-2-2.2-.5-1-.7-2.1-.7-3.3s.2-2.4.7-3.4c.5-1,1.2-1.7,2-2.3.9-.5,1.9-.8,3-.8s1.9.2,2.6.6c.7.4,1.3,1,1.7,1.8v-1.1c0-.4.1-.7.4-.9.2-.2.6-.3,1-.3s.7.1,1,.4ZM94.4,612.4c.6-.8,1-1.8,1-3.1s-.3-2.4-1-3.1c-.6-.8-1.5-1.1-2.7-1.1s-2.1.4-2.7,1.1c-.7.8-1,1.8-1,3.1s.3,2.4,1,3.1c.7.8,1.6,1.1,2.7,1.1s2-.4,2.7-1.1Z"/>
            <path class="st15" d="M103.7,615.4c-1-.5-1.7-1.3-2.2-2.3-.5-1-.8-2.2-.8-3.5s.3-2.5.8-3.5c.5-1,1.3-1.8,2.2-2.3,1-.5,2.1-.8,3.3-.8s2.4.3,3.3.8c1,.5,1.7,1.3,2.2,2.3.5,1,.8,2.2.8,3.5s-.3,2.5-.8,3.5c-.5,1-1.3,1.8-2.2,2.3-1,.5-2.1.8-3.3.8s-2.4-.3-3.3-.8ZM109.8,613c.6-.8.9-1.9.9-3.4s-.3-2.6-.9-3.4c-.6-.8-1.5-1.2-2.7-1.2s-2.1.4-2.7,1.2c-.6.8-1,1.9-1,3.4s.3,2.6.9,3.4c.6.8,1.5,1.2,2.7,1.2s2.1-.4,2.7-1.2Z"/>
            <path class="st15" d="M127,603.3c.2.2.4.5.4.9v10.7c0,.4-.1.7-.4.9-.2.2-.6.3-1,.3s-.7-.1-.9-.3c-.2-.2-.3-.5-.3-.9v-1c-.4.7-1,1.3-1.7,1.7-.7.4-1.5.6-2.4.6-3.1,0-4.7-1.7-4.7-5.2v-6.9c0-.4.1-.7.4-.9.2-.2.6-.3,1-.3s.7.1,1,.3c.2.2.4.5.4.9v6.8c0,1,.2,1.8.6,2.3.4.5,1.1.7,2,.7s1.9-.3,2.5-1c.6-.7.9-1.6.9-2.7v-6.2c0-.4.1-.7.4-.9.2-.2.6-.4,1-.4s.7.1,1,.3Z"/>
            <path class="st15" d="M140.4,603.1c.2-.1.4-.2.6-.2.3,0,.6.1.9.3.3.2.4.5.4.8s0,.3-.1.5l-5,10.7c-.1.3-.3.5-.6.6-.3.1-.5.2-.8.2s-.5,0-.8-.2c-.3-.1-.4-.4-.6-.6l-5-10.7c0-.1-.1-.3-.1-.5,0-.3.1-.6.4-.8.3-.2.6-.3,1-.3.5,0,.9.2,1.1.7l4.1,9.1,4.1-9c.1-.3.3-.5.5-.6Z"/>
            <path class="st15" d="M154.6,613.1c.2.2.2.4.2.7,0,.5-.3.9-.9,1.3-.6.4-1.3.6-2,.8-.7.2-1.4.3-2.1.3-2,0-3.7-.6-4.8-1.8-1.2-1.2-1.8-2.8-1.8-4.9s.3-2.5.8-3.5c.5-1,1.2-1.8,2.2-2.4.9-.6,2-.8,3.2-.8,1.7,0,3.1.6,4.1,1.7,1,1.1,1.5,2.6,1.5,4.5s-.3,1.1-.9,1.1h-8.2c.2,2.7,1.5,4.1,3.9,4.1s1.2,0,1.7-.3c.5-.2,1-.4,1.5-.7,0,0,.2-.1.4-.2.2-.1.4-.2.6-.2.2,0,.4,0,.6.3ZM146.9,605.8c-.6.7-1,1.6-1.1,2.7h6.8c0-1.2-.4-2.1-.9-2.8-.6-.6-1.3-1-2.3-1s-1.8.3-2.5,1Z"/>
            <path class="st15" d="M164.8,604c0,.4,0,.7-.3.9-.2.2-.5.3-1,.3h0c-1.1.1-2,.6-2.6,1.2-.5.7-.8,1.5-.8,2.4v6c0,.4-.1.7-.4.9-.2.2-.6.3-.9.3s-.7-.1-1-.3c-.3-.2-.4-.5-.4-.9v-10.7c0-.4.1-.7.4-.9.3-.2.6-.3,1-.3s.6.1.9.3c.2.2.4.5.4.9v1.3c.4-.8.9-1.4,1.5-1.8.7-.4,1.1-.6,2-.7h0c.8,0,1.2.3,1.2,1Z"/>
            <path class="st15" d="M178.7,608.1v6.9c0,.4-.1.7-.4.9-.2.2-.6.3-1,.3s-.7-.1-1-.3c-.2-.2-.4-.5-.4-.9v-6.7c0-1.1-.2-1.9-.6-2.4-.4-.5-1.1-.8-2-.8s-1.9.3-2.6,1c-.7.7-1,1.6-1,2.7v6.2c0,.4-.1.7-.4.9-.2.2-.6.3-1,.3s-.7-.1-1-.3c-.2-.2-.4-.5-.4-.9v-10.7c0-.4.1-.7.4-.9.3-.2.6-.4,1-.4s.7.1.9.3c.2.2.3.5.3.9v1.1c.4-.8,1-1.4,1.8-1.8.8-.4,1.6-.6,2.6-.6,3.1,0,4.6,1.7,4.6,5.2Z"/>
            <path class="st15" d="M192.8,613.1c.2.2.2.4.2.7,0,.5-.3.9-.9,1.3-.6.4-1.3.6-2,.8-.7.2-1.4.3-2.1.3-2,0-3.7-.6-4.8-1.8-1.2-1.2-1.8-2.8-1.8-4.9s.3-2.5.8-3.5c.5-1,1.2-1.8,2.2-2.4.9-.6,2-.8,3.2-.8,1.7,0,3.1.6,4.1,1.7,1,1.1,1.5,2.6,1.5,4.5s-.3,1.1-.9,1.1h-8.2c.2,2.7,1.5,4.1,3.9,4.1s1.2,0,1.7-.3c.5-.2,1-.4,1.5-.7,0,0,.2-.1.4-.2.2-.1.4-.2.6-.2.2,0,.4,0,.6.3ZM185.1,605.8c-.6.7-1,1.6-1.1,2.7h6.8c0-1.2-.4-2.1-.9-2.8-.6-.6-1.3-1-2.3-1s-1.8.3-2.5,1Z"/>
            <path class="st15" d="M214.9,608.1v6.9c0,.4-.1.7-.4.9-.2.2-.6.3-1,.3s-.7-.1-.9-.3c-.2-.2-.4-.5-.4-.9v-6.8c0-1.1-.2-1.9-.6-2.3-.4-.5-1-.7-1.8-.7s-1.7.3-2.3,1c-.6.7-.8,1.6-.8,2.7v6.2c0,.4-.1.7-.4.9-.2.2-.6.3-1,.3s-.7-.1-.9-.3c-.2-.2-.4-.5-.4-.9v-6.8c0-1.1-.2-1.9-.6-2.3-.4-.5-1-.7-1.8-.7s-1.7.3-2.3,1c-.6.7-.9,1.6-.9,2.7v6.2c0,.4-.1.7-.4.9-.2.2-.6.3-.9.3s-.7-.1-1-.3c-.3-.2-.4-.5-.4-.9v-10.7c0-.4.1-.7.4-.9.3-.2.6-.3,1-.3s.7.1.9.3c.2.2.4.5.4.9v1c.4-.7.9-1.3,1.6-1.7.7-.4,1.5-.6,2.4-.6s1.8.2,2.4.6c.6.4,1.1,1,1.4,1.9.4-.8,1-1.4,1.7-1.8.8-.4,1.6-.7,2.6-.7,2.9,0,4.3,1.7,4.3,5.2Z"/>
            <path class="st15" d="M229,613.1c.2.2.2.4.2.7,0,.5-.3.9-.9,1.3-.6.4-1.3.6-2,.8-.7.2-1.4.3-2.1.3-2,0-3.7-.6-4.8-1.8-1.2-1.2-1.8-2.8-1.8-4.9s.3-2.5.8-3.5c.5-1,1.2-1.8,2.2-2.4.9-.6,2-.8,3.2-.8,1.7,0,3.1.6,4.1,1.7,1,1.1,1.5,2.6,1.5,4.5s-.3,1.1-.9,1.1h-8.2c.2,2.7,1.5,4.1,3.9,4.1s1.2,0,1.7-.3c.5-.2,1-.4,1.5-.7,0,0,.2-.1.4-.2.2-.1.4-.2.6-.2.2,0,.4,0,.6.3ZM221.3,605.8c-.6.7-1,1.6-1.1,2.7h6.8c0-1.2-.4-2.1-.9-2.8-.6-.6-1.3-1-2.3-1s-1.8.3-2.5,1Z"/>
            <path class="st15" d="M243.5,608.1v6.9c0,.4-.1.7-.4.9-.2.2-.6.3-1,.3s-.7-.1-1-.3c-.2-.2-.4-.5-.4-.9v-6.7c0-1.1-.2-1.9-.6-2.4-.4-.5-1.1-.8-2-.8s-1.9.3-2.6,1c-.7.7-1,1.6-1,2.7v6.2c0,.4-.1.7-.4.9-.2.2-.6.3-1,.3s-.7-.1-1-.3c-.2-.2-.4-.5-.4-.9v-10.7c0-.4.1-.7.4-.9.3-.2.6-.4,1-.4s.7.1.9.3.3.5.3.9v1.1c.4-.8,1-1.4,1.8-1.8.8-.4,1.6-.6,2.6-.6,3.1,0,4.6,1.7,4.6,5.2Z"/>
            <path class="st15" d="M254,614.5c.2.2.2.4.2.7s-.1.6-.4.8c-.3.2-.7.3-1.2.2h-.7c-1.4-.2-2.5-.6-3.2-1.4-.7-.8-1.1-1.9-1.1-3.4v-6.2h-1.6c-.8,0-1.2-.3-1.2-1s.1-.6.3-.8c.2-.2.5-.3.9-.3h1.6v-2.7c0-.4.1-.7.4-.9.2-.2.6-.3,1-.3s.7.1,1,.3c.2.2.4.5.4.9v2.7h2.6c.4,0,.7,0,.9.3.2.2.3.4.3.8s-.1.6-.3.8c-.2.2-.5.3-.9.3h-2.6v6.4c0,.8.2,1.4.5,1.8s.9.6,1.6.7h.7c.4,0,.7.2.8.4Z"/>
          </g>
        </g>
      </g>
    </g>
  </g>
  <g id="Québec_drapeau_couleurs">
    <g>
      <g>
        <path class="st1" d="M846.5,611.1v-16.5h-.1c-.6.5-2.7.6-3.7.6h-1.6c1.8,1.3,1.6,2.9,1.6,5v7c0,3.5-3.4,5.9-6.2,5.9s-5.1-2.6-5.1-6.7v-11.7h-.1c-.6.5-2.8.6-3.7.6h-1.6c1.8,1.3,1.6,2.9,1.6,5v6.9c0,6.4,2.8,9.4,7.7,9.4s5.9-1,7.4-3.5v3h5.4c-1.8-1.2-1.6-2.9-1.6-4.9Z"/>
        <path class="st1" d="M854.9,602.3c.5-2.8,2.6-4.6,5.4-4.6s4.9,1.5,5.4,4.6h-10.8ZM870,604.9c.2-5.8-3.7-10.2-9.4-10.2s-10.4,4.5-10.4,10.8,4.9,11.1,12,11.1,4-.3,5.8-1.1l2.1-4.2h-.1c-1.9,1.6-4.3,2.4-6.9,2.4-4.7,0-8.3-3.2-8.4-8.8h15.3Z"/>
        <path class="st1" d="M873.4,585c1,0,3,0,3.7-.7h.1v28.5c1.1.3,2.3.5,3.4.5,4.6,0,7.2-3.2,7.2-7.6s-2-7.7-6.2-7.7-2.4.4-3.5,1l2.2-3.8c1-.4,2-.5,2.9-.5,4.7,0,8.8,4.1,8.8,10.3s-4.8,11.6-12.3,11.6-5.5-.5-7.6-.8h0c1.4-.8,1.3-2.3,1.3-3.8v-20.7c0-2.1.3-5-1.5-6.1h0c0-.1,1.6-.1,1.6-.1Z"/>
        <path class="st1" d="M899.4,602.3c.5-2.8,2.6-4.6,5.4-4.6s4.9,1.5,5.4,4.6h-10.8ZM914.6,604.9c.2-5.8-3.7-10.2-9.4-10.2s-10.4,4.5-10.4,10.8,4.9,11.1,12,11.1,4-.3,5.8-1.1l2.1-4.2h-.1c-1.9,1.6-4.3,2.4-6.9,2.4-4.7,0-8.3-3.2-8.4-8.8h15.3Z"/>
        <path class="st1" d="M933.3,599.9h-.1c-1.2-1.5-3.2-2.2-5.1-2.2-4.1,0-7,3.1-7,7.4s4.1,8.6,8.7,8.6,4.5-.9,6.1-2.2h.1l-2.2,4.3c-1.8.7-3.7.9-5.5.9-6.4,0-11.5-4.5-11.5-10.4s5.6-11.5,11.9-11.5,3.1.2,4.5.5v4.6Z"/>
        <path class="st2" d="M864.8,591v-4.5c-2.7,1.2-5.3,3.5-7,5.8v1.8c4.1-2.7,7-2.9,7-3Z"/>
        <path class="st1" d="M808.8,613.5c-6.3,0-10.7-7.1-10.7-13.2s0-.6,0-.7c0-5.9,3.9-11.4,10.5-11.4s10.6,6.6,10.6,12.8v.7c0,6.7-4.1,11.7-10.4,11.7ZM830.5,620.4c-4.7.8-9.1-.7-13.9-6.2,4.6-2.3,7.4-8.1,7.4-13.4s0-.6,0-.7c0-9.1-6.9-15.2-15.1-15.2s-15.4,6.3-15.5,15.5c0,0,0,.6,0,.6,0,9,6.6,15.6,14.8,15.6s2.3-.2,3.4-.5c5.3,5,10.1,7.1,14.2,6.6,2-.2,4-1,5.2-2.6h-.6Z"/>
      </g>
      <g>
        <rect class="st9" x="943.5" y="585.1" width="20.4" height="12.5"/>
        <path class="st4" d="M953.7,585.7c-.1.3-.5.7-1,1.4-.7.8-.5,1.9-.2,2.5.4.7.6,1.4.7,1.9.2.8,0,2,0,1.9h-.6c0-1.4-.4-2.7-1.5-3.3-1.5-.8-2.9.6-2.5,2.1.2.8.7,1,.8,1,0,0-.2-.9.4-1.3.6-.4,1.3-.2,1.6.3.3.5.4,1.1.4,1.1h-1.1v.8h2.1s0,1.1-1.2,1c0,0,.1.9,1.2.4,0,0,0,.9.7,1.4h0c.7-.5.7-1.4.7-1.4,1.1.5,1.2-.4,1.2-.4-1.2.1-1.2-1-1.2-1h2.1s0-.8,0-.8h-1.1s0-.6.4-1.1c.3-.5,1-.7,1.6-.3.6.4.4,1.3.4,1.3.1,0,.6-.3.8-1,.5-1.5-1-2.9-2.5-2.1-1,.6-1.5,1.9-1.5,3.3h-.6c0,.1-.1-1,0-1.9.2-.6.4-1.2.7-1.9.3-.6.4-1.7-.2-2.5-.6-.7-.9-1.1-1-1.4Z"/>
        <rect class="st9" x="969.8" y="585.1" width="20.4" height="12.5"/>
        <path class="st4" d="M980,585.7c-.2.3-.5.7-1,1.4-.7.8-.5,1.9-.2,2.5.4.7.6,1.4.7,1.9.2.8,0,2,0,1.9h-.6c0-1.4-.4-2.7-1.5-3.3-1.5-.8-2.9.6-2.5,2.1.2.8.7,1,.8,1,0,0-.2-.9.4-1.3.6-.4,1.3-.2,1.6.3.3.5.4,1.1.4,1.1h-1.1v.8h2.1s0,1.1-1.2,1c0,0,.1.9,1.2.4,0,0,0,.9.7,1.4h0c.7-.5.7-1.4.7-1.4,1.1.5,1.2-.4,1.2-.4-1.2.1-1.2-1-1.2-1h2.1s0-.8,0-.8h-1.1s0-.6.4-1.1c.3-.5,1.1-.7,1.6-.3.6.4.4,1.3.4,1.3.1,0,.6-.3.8-1,.5-1.5-1-2.9-2.5-2.1-1,.6-1.5,1.9-1.5,3.3h-.6c0,.1-.1-1,0-1.9.2-.6.4-1.2.7-1.9.3-.6.4-1.7-.2-2.5-.6-.7-.9-1.1-1-1.4Z"/>
      </g>
      <g>
        <rect class="st9" x="943.5" y="603.5" width="20.4" height="12.5"/>
        <path class="st4" d="M953.7,604.1c-.1.3-.5.7-1,1.4-.7.8-.5,1.9-.2,2.5.4.7.6,1.4.7,1.9.2.8,0,2,0,1.9h-.6c0-1.4-.4-2.7-1.5-3.3-1.5-.8-2.9.6-2.5,2.1.2.8.7,1,.8,1,0,0-.2-.9.4-1.3.6-.4,1.3-.2,1.6.3.3.5.4,1.1.4,1.1h-1.1v.8h2.1s0,1.1-1.2,1c0,0,.1.9,1.2.4,0,0,0,.9.7,1.4h0c.7-.5.7-1.4.7-1.4,1.1.5,1.2-.4,1.2-.4-1.2.1-1.2-1-1.2-1h2.1v-.8h-1.1s0-.6.4-1.1c.3-.5,1-.7,1.6-.3.6.4.4,1.3.4,1.3.1,0,.6-.3.8-1,.5-1.5-1-2.9-2.5-2.1-1,.6-1.5,1.9-1.5,3.3h-.6c0,.1-.1-1,0-1.9.2-.6.4-1.2.7-1.9.3-.6.4-1.7-.2-2.5-.6-.7-.9-1.1-1-1.4Z"/>
        <rect class="st9" x="969.8" y="603.5" width="20.4" height="12.5"/>
        <path class="st4" d="M980,604.1c-.2.3-.5.7-1,1.4-.7.8-.5,1.9-.2,2.5.4.7.6,1.4.7,1.9.2.8,0,2,0,1.9h-.6c0-1.4-.4-2.7-1.5-3.3-1.5-.8-2.9.6-2.5,2.1.2.8.7,1,.8,1,0,0-.2-.9.4-1.3.6-.4,1.3-.2,1.6.3.3.5.4,1.1.4,1.1h-1.1v.8h2.1s0,1.1-1.2,1c0,0,.1.9,1.2.4,0,0,0,.9.7,1.4h0c.7-.5.7-1.4.7-1.4,1.1.5,1.2-.4,1.2-.4-1.2.1-1.2-1-1.2-1h2.1v-.8h-1.1s0-.6.4-1.1c.3-.5,1.1-.7,1.6-.3.6.4.4,1.3.4,1.3.1,0,.6-.3.8-1,.5-1.5-1-2.9-2.5-2.1-1,.6-1.5,1.9-1.5,3.3h-.6c0,.1-.1-1,0-1.9.2-.6.4-1.2.7-1.9.3-.6.4-1.7-.2-2.5-.6-.7-.9-1.1-1-1.4Z"/>
      </g>
    </g>
  </g>
  <g>
    <g>
      <path class="st12" d="M652,575.9c-.5-.3-1-.5-1.7-.5s-.6,0-.8,0c-.3,0-.5.2-.7.3-.2.1-.4.3-.5.5-.1.2-.2.5-.2.8s0,.6.3.8c.2.2.4.4.7.5.3.1.7.2,1.1.3.4,0,.8.2,1.2.3.4,0,.8.2,1.2.3.4.1.7.3,1.1.5.3.2.6.5.7.8.2.3.3.8.3,1.3s-.1,1-.4,1.4c-.2.4-.6.7-.9.9-.4.2-.8.4-1.3.5-.5.1-.9.2-1.4.2s-1.1,0-1.6-.2c-.5-.1-1-.4-1.4-.7-.4-.3-.7-.7-.9-1.1-.2-.5-.3-1-.3-1.6h1.3c0,.4,0,.8.3,1.1.2.3.4.6.7.8.3.2.6.4,1,.4.4,0,.7.1,1.1.1s.6,0,.9,0c.3,0,.6-.2.8-.3.2-.1.5-.3.6-.6.2-.2.2-.5.2-.9s0-.6-.3-.9c-.2-.2-.4-.4-.7-.5-.3-.1-.7-.3-1.1-.3-.4,0-.8-.2-1.2-.3-.4,0-.8-.2-1.2-.3-.4-.1-.7-.3-1.1-.5-.3-.2-.6-.5-.7-.8-.2-.3-.3-.7-.3-1.2s.1-1,.3-1.3c.2-.4.5-.7.8-.9.3-.2.7-.4,1.2-.5.4-.1.9-.2,1.4-.2s1,0,1.5.2c.5.1.8.3,1.2.6.3.3.6.6.8,1,.2.4.3.9.3,1.5h-1.3c0-.7-.3-1.3-.8-1.6Z"/>
      <path class="st12" d="M655.9,577.6c.2-.6.5-1.2.9-1.7.4-.5.9-.9,1.5-1.2.6-.3,1.3-.4,2.1-.4s1.5.1,2.1.4c.6.3,1.1.7,1.5,1.2.4.5.7,1.1.9,1.7.2.6.3,1.3.3,2s-.1,1.4-.3,2c-.2.6-.5,1.2-.9,1.7-.4.5-.9.9-1.5,1.2-.6.3-1.3.4-2.1.4s-1.5-.1-2.1-.4c-.6-.3-1.1-.7-1.5-1.2-.4-.5-.7-1.1-.9-1.7-.2-.6-.3-1.3-.3-2s.1-1.4.3-2ZM657.2,581.2c.1.5.3,1,.6,1.4.3.4.7.7,1.1,1,.5.2,1,.4,1.6.4s1.2-.1,1.6-.4c.5-.2.8-.6,1.1-1,.3-.4.5-.9.6-1.4.1-.5.2-1,.2-1.5s0-1-.2-1.5c-.1-.5-.3-1-.6-1.4-.3-.4-.7-.7-1.1-1-.5-.2-1-.4-1.6-.4s-1.2.1-1.6.4c-.5.2-.8.6-1.1,1-.3.4-.5.9-.6,1.4-.1.5-.2,1-.2,1.5s0,1,.2,1.5Z"/>
      <path class="st12" d="M673.3,576c-.5-.4-1.1-.5-1.9-.5s-1.1.1-1.6.3c-.4.2-.8.5-1.1.9-.3.4-.5.8-.6,1.3-.1.5-.2,1-.2,1.6s0,1.1.2,1.7c.1.5.3,1,.6,1.4.3.4.6.7,1.1.9s1,.3,1.6.3.9,0,1.2-.2c.3-.1.7-.4.9-.6.3-.3.5-.6.6-.9.1-.4.2-.8.3-1.2h1.4c-.1,1.3-.6,2.3-1.3,3-.8.7-1.8,1.1-3.1,1.1s-1.5-.1-2.1-.4c-.6-.3-1.1-.6-1.5-1.1-.4-.5-.7-1-.9-1.7-.2-.7-.3-1.4-.3-2.1s.1-1.5.3-2.1c.2-.7.5-1.2.9-1.7.4-.5.9-.9,1.5-1.2.6-.3,1.3-.4,2.1-.4s1,0,1.5.2c.5.1.9.4,1.3.6.4.3.7.6.9,1,.2.4.4.9.5,1.4h-1.4c-.2-.7-.5-1.3-1-1.6Z"/>
      <path class="st12" d="M678.9,574.5v10.3h-1.4v-10.3h1.4Z"/>
      <path class="st12" d="M688.3,574.5v1.2h-5.7v3.3h5.3v1.2h-5.3v3.6h5.8v1.2h-7.1v-10.3h7.1ZM686.5,571.7l-1.9,2.1h-.9l1.2-2.1h1.6Z"/>
      <path class="st12" d="M688.9,575.7v-1.2h8.2v1.2h-3.4v9.1h-1.4v-9.1h-3.4Z"/>
      <path class="st12" d="M705.4,574.5v1.2h-5.7v3.3h5.3v1.2h-5.3v3.6h5.8v1.2h-7.1v-10.3h7.1ZM703.5,571.7l-1.9,2.1h-.9l1.2-2.1h1.6Z"/>
      <path class="st12" d="M714.6,574.5c1.6,0,2.8.4,3.7,1.2.9.8,1.3,2,1.3,3.7s0,1.6-.3,2.3c-.2.7-.5,1.2-.9,1.7-.4.5-.9.8-1.5,1-.6.2-1.4.4-2.2.4h-3.5v-10.3h3.5ZM714.7,583.6c.2,0,.3,0,.6,0,.2,0,.5,0,.7-.2.3,0,.5-.2.8-.4.3-.2.5-.4.7-.7.2-.3.4-.7.5-1.1.1-.4.2-1,.2-1.6s0-1.2-.2-1.6c-.1-.5-.3-.9-.6-1.2-.3-.3-.6-.6-1.1-.8-.4-.2-1-.3-1.6-.3h-2.3v8h2.3Z"/>
      <path class="st12" d="M728.3,574.5v1.2h-5.7v3.3h5.3v1.2h-5.3v3.6h5.8v1.2h-7.1v-10.3h7.1Z"/>
      <path class="st12" d="M645.8,591.4v-1.2h8.2v1.2h-3.4v9.1h-1.4v-9.1h-3.4Z"/>
      <path class="st12" d="M660,590.2c1,0,1.7.2,2.3.7.6.5.8,1.1.8,2s-.1,1.2-.4,1.6c-.3.5-.7.8-1.4,1h0c.3,0,.5.2.7.3.2.1.3.3.4.5.1.2.2.4.2.6,0,.2,0,.5.1.7,0,.2,0,.5,0,.8,0,.3,0,.5,0,.8,0,.2,0,.5.2.7,0,.2.2.4.3.6h-1.5c0-.1-.2-.2-.2-.4,0-.2,0-.4,0-.6,0-.2,0-.5,0-.7,0-.3,0-.5,0-.8,0-.2,0-.5-.1-.7,0-.2-.1-.4-.3-.6-.1-.2-.3-.3-.5-.4-.2-.1-.5-.2-.8-.2h-3.3v4.4h-1.4v-10.3h4.8ZM660.3,594.9c.3,0,.5-.1.8-.3.2-.1.4-.3.5-.6.1-.2.2-.5.2-.9s-.1-.9-.4-1.3c-.3-.3-.8-.5-1.4-.5h-3.4v3.6h2.8c.3,0,.6,0,.9,0Z"/>
      <path class="st12" d="M669.3,590.2l4,10.3h-1.5l-1.1-3.1h-4.3l-1.2,3.1h-1.4l4-10.3h1.5ZM670.2,596.2l-1.7-4.8h0l-1.7,4.8h3.5Z"/>
      <path class="st12" d="M675.8,590.2l5.4,8.3h0v-8.3h1.3v10.3h-1.5l-5.4-8.2h0v8.2h-1.3v-10.3h1.5Z"/>
      <path class="st12" d="M689.8,591.6c-.5-.3-1-.5-1.7-.5s-.6,0-.8,0c-.3,0-.5.2-.7.3-.2.1-.4.3-.5.5-.1.2-.2.5-.2.8s0,.6.3.8c.2.2.4.4.7.5.3.1.7.2,1.1.3.4,0,.8.2,1.2.3.4,0,.8.2,1.2.3.4.1.7.3,1.1.5.3.2.6.5.7.8.2.3.3.8.3,1.3s-.1,1-.4,1.4c-.2.4-.6.7-.9.9s-.8.4-1.3.5c-.5.1-.9.2-1.4.2s-1.1,0-1.6-.2c-.5-.1-1-.4-1.4-.7-.4-.3-.7-.7-.9-1.1-.2-.5-.3-1-.3-1.6h1.3c0,.4,0,.8.3,1.1.2.3.4.6.7.8.3.2.6.4,1,.4.4,0,.7.1,1.1.1s.6,0,.9,0c.3,0,.6-.2.8-.3.2-.1.5-.3.6-.6.2-.2.2-.5.2-.9s0-.6-.3-.9c-.2-.2-.4-.4-.7-.5-.3-.1-.7-.3-1.1-.3-.4,0-.8-.2-1.2-.3-.4,0-.8-.2-1.2-.3-.4-.1-.7-.3-1.1-.5-.3-.2-.6-.5-.7-.8-.2-.3-.3-.7-.3-1.2s.1-1,.3-1.3c.2-.4.5-.7.8-.9.4-.2.7-.4,1.2-.5.4-.1.9-.2,1.4-.2s1,0,1.5.2c.5.1.8.3,1.2.6.3.3.6.6.8,1,.2.4.3.9.3,1.5h-1.3c0-.7-.3-1.3-.8-1.6Z"/>
      <path class="st12" d="M698.5,590.2c1,0,1.8.3,2.4.8.5.5.8,1.3.8,2.2s-.3,1.7-.8,2.2c-.5.5-1.3.8-2.4.8h-3.1v4.2h-1.4v-10.3h4.5ZM698.1,595.1c.8,0,1.3-.1,1.7-.5.4-.3.5-.8.5-1.4s-.2-1.1-.5-1.4c-.4-.3-.9-.5-1.7-.5h-2.7v3.8h2.7Z"/>
      <path class="st12" d="M703.1,593.3c.2-.6.5-1.2.9-1.7.4-.5.9-.9,1.5-1.2.6-.3,1.3-.4,2.1-.4s1.5.1,2.1.4c.6.3,1.1.7,1.5,1.2.4.5.7,1.1.9,1.7.2.6.3,1.3.3,2s-.1,1.4-.3,2c-.2.6-.5,1.2-.9,1.7-.4.5-.9.9-1.5,1.2-.6.3-1.3.4-2.1.4s-1.5-.1-2.1-.4c-.6-.3-1.1-.7-1.5-1.2-.4-.5-.7-1.1-.9-1.7-.2-.6-.3-1.3-.3-2s.1-1.4.3-2ZM704.3,596.9c.1.5.3,1,.6,1.4.3.4.7.7,1.1,1,.5.2,1,.4,1.6.4s1.2-.1,1.6-.4c.5-.2.8-.6,1.1-1,.3-.4.5-.9.6-1.4.1-.5.2-1,.2-1.5s0-1-.2-1.5c-.1-.5-.3-1-.6-1.4-.3-.4-.7-.7-1.1-1-.5-.2-1-.4-1.6-.4s-1.2.1-1.6.4c-.5.2-.8.6-1.1,1-.3.4-.5.9-.6,1.4-.1.5-.2,1-.2,1.5s0,1,.2,1.5Z"/>
      <path class="st12" d="M719.1,590.2c1,0,1.7.2,2.3.7.6.5.8,1.1.8,2s-.1,1.2-.4,1.6c-.3.5-.7.8-1.4,1h0c.3,0,.5.2.7.3.2.1.3.3.4.5.1.2.2.4.2.6,0,.2,0,.5.1.7,0,.2,0,.5,0,.8,0,.3,0,.5,0,.8,0,.2,0,.5.2.7,0,.2.2.4.3.6h-1.5c0-.1-.2-.2-.2-.4,0-.2,0-.4,0-.6,0-.2,0-.5,0-.7,0-.3,0-.5,0-.8,0-.2,0-.5-.1-.7,0-.2-.1-.4-.3-.6-.1-.2-.3-.3-.5-.4-.2-.1-.5-.2-.8-.2h-3.3v4.4h-1.4v-10.3h4.8ZM719.4,594.9c.3,0,.5-.1.8-.3.2-.1.4-.3.5-.6.1-.2.2-.5.2-.9s-.1-.9-.4-1.3c-.3-.3-.8-.5-1.4-.5h-3.4v3.6h2.8c.3,0,.6,0,.9,0Z"/>
      <path class="st12" d="M722.8,591.4v-1.2h8.2v1.2h-3.4v9.1h-1.4v-9.1h-3.4Z"/>
      <path class="st12" d="M650.4,605.9c1.6,0,2.8.4,3.7,1.2.9.8,1.3,2,1.3,3.7s0,1.6-.3,2.3c-.2.7-.5,1.2-.9,1.7-.4.5-.9.8-1.5,1-.6.2-1.4.4-2.2.4h-3.5v-10.3h3.5ZM650.5,615c.2,0,.3,0,.6,0,.2,0,.5,0,.7-.2.3,0,.5-.2.8-.4.3-.2.5-.4.7-.7.2-.3.4-.7.5-1.1.1-.4.2-1,.2-1.6s0-1.2-.2-1.6c-.1-.5-.3-.9-.6-1.2-.3-.3-.6-.6-1.1-.8-.4-.2-1-.3-1.6-.3h-2.3v8h2.3Z"/>
      <path class="st12" d="M674.9,607.3c-.5-.3-1-.5-1.7-.5s-.6,0-.8,0c-.3,0-.5.2-.7.3-.2.1-.4.3-.5.5-.1.2-.2.5-.2.8s0,.6.3.8c.2.2.4.4.7.5.3.1.7.2,1.1.3.4,0,.8.2,1.2.3.4,0,.8.2,1.2.3.4.1.7.3,1.1.5.3.2.6.5.7.8.2.3.3.8.3,1.3s-.1,1-.4,1.4c-.2.4-.6.7-.9.9-.4.2-.8.4-1.3.5-.5.1-.9.2-1.4.2s-1.1,0-1.6-.2c-.5-.1-1-.4-1.4-.7-.4-.3-.7-.7-.9-1.1s-.3-1-.3-1.6h1.3c0,.4,0,.8.3,1.1.2.3.4.6.7.8.3.2.6.4,1,.4.4,0,.7.1,1.1.1s.6,0,.9,0c.3,0,.6-.2.8-.3.2-.1.5-.3.6-.6.2-.2.2-.5.2-.9s0-.6-.3-.9c-.2-.2-.4-.4-.7-.5-.3-.1-.7-.3-1.1-.3-.4,0-.8-.2-1.2-.3-.4,0-.8-.2-1.2-.3-.4-.1-.7-.3-1.1-.5-.3-.2-.6-.5-.7-.8-.2-.3-.3-.7-.3-1.2s.1-1,.3-1.3c.2-.4.5-.7.8-.9.4-.2.7-.4,1.2-.5.4-.1.9-.2,1.4-.2s1,0,1.5.2c.5.1.8.3,1.2.6.3.3.6.6.8,1,.2.4.3.9.3,1.5h-1.3c0-.7-.3-1.3-.8-1.6Z"/>
      <path class="st12" d="M683.7,605.9l4,10.3h-1.5l-1.1-3.1h-4.3l-1.2,3.1h-1.4l4-10.3h1.5ZM684.7,611.9l-1.7-4.8h0l-1.7,4.8h3.5Z"/>
      <path class="st12" d="M694.6,616.1c-.6.2-1.2.4-1.8.4s-1.5-.1-2.1-.4c-.6-.3-1.1-.7-1.5-1.1-.4-.5-.7-1-1-1.7-.2-.6-.3-1.3-.3-1.9s.1-1.5.3-2.1c.2-.7.5-1.3.9-1.8.4-.5.9-.9,1.5-1.2.6-.3,1.3-.5,2.1-.5s1.1,0,1.6.2c.5.1.9.3,1.3.6.4.3.7.6,1,1.1.3.4.4.9.5,1.5h-1.4c0-.4-.2-.7-.4-1-.2-.3-.4-.5-.7-.7-.3-.2-.6-.3-.9-.4-.3,0-.7-.1-1.1-.1-.6,0-1.2.1-1.6.4-.4.2-.8.6-1.1,1-.3.4-.5.9-.6,1.4-.1.5-.2,1.1-.2,1.6s0,1.1.2,1.5c.2.5.4.9.7,1.3.3.4.7.7,1.1.9.4.2.9.3,1.5.3s1,0,1.4-.3c.4-.2.8-.4,1-.7.3-.3.5-.7.6-1.1.1-.4.2-.8.2-1.3h-3.3v-1.2h4.5v5.4h-.9l-.4-1.3c-.4.5-.9.9-1.5,1.2Z"/>
      <path class="st12" d="M706.5,615.4c-.7.7-1.7,1-3,1s-2.4-.3-3.1-.9c-.7-.6-1.1-1.6-1.1-3v-6.6h1.4v6.6c0,.9.2,1.6.7,2.1.5.5,1.2.7,2.1.7s1.5-.2,2-.7c.5-.5.7-1.2.7-2.1v-6.6h1.4v6.6c0,1.3-.4,2.3-1.1,3Z"/>
      <path class="st12" d="M663.6,615.4c-.7.7-1.7,1-3,1s-2.4-.3-3.1-.9c-.7-.6-1.1-1.6-1.1-3v-6.6h1.4v6.6c0,.9.2,1.6.7,2.1.5.5,1.2.7,2.1.7s1.5-.2,2-.7.7-1.2.7-2.1v-6.6h1.4v6.6c0,1.3-.4,2.3-1.1,3Z"/>
      <path class="st12" d="M716.8,605.9v1.2h-5.7v3.3h5.3v1.2h-5.3v3.6h5.8v1.2h-7.1v-10.3h7.1Z"/>
      <path class="st12" d="M720,605.9l5.4,8.3h0v-8.3h1.3v10.3h-1.5l-5.4-8.2h0v8.2h-1.3v-10.3h1.5Z"/>
      <path class="st12" d="M733.2,605.9l4,10.3h-1.5l-1.1-3.1h-4.3l-1.2,3.1h-1.4l4-10.3h1.5ZM734.2,611.9l-1.7-4.8h0l-1.7,4.8h3.5Z"/>
      <path class="st12" d="M741.4,616.2h-1.4v-4.2l-4-6.1h1.6l3.1,4.9,3-4.9h1.6l-3.9,6.1v4.2Z"/>
    </g>
    <path class="st18" d="M633,597.5c0,22.6-18.3,41-41,41s-41-18.3-41-41,18.3-41,41-41,41,18.3,41,41Z"/>
    <g>
      <path class="st5" d="M568.1,595.5c0,5.3-1,7.4-2.6,8.7-1.7,1.4-4.2,1.8-6.5,1.8v5.9c4.3,0,7.8-.9,10.4-3,4.4-3.6,4.9-8.8,4.9-13.5s1.1-7.3,2.7-8.8c1.2-1,3.4-1.8,5.9-1.8v-6c-4.2,0-7.7,1-10,3.2-3.4,2.9-4.9,7-4.9,13.4Z"/>
      <polygon class="st5" points="600.1 584.9 600.1 578.9 595.7 578.9 589.4 578.9 585.3 578.9 585.3 584.9 589.4 584.9 589.4 612 595.7 612 595.7 584.9 600.1 584.9"/>
      <path class="st5" d="M612.1,582.1c-3.4,2.9-4.9,7-4.9,13.4s-1,7.4-2.6,8.7c-1.7,1.4-4.2,1.8-6.5,1.8v5.9c4.3,0,7.8-.9,10.4-3,4.4-3.6,4.9-8.8,4.9-13.5s1.1-7.3,2.7-8.8c1.2-1,3.4-1.8,5.9-1.8v-6c-4.2,0-7.6,1-10,3.2Z"/>
    </g>
  </g>
  <g>
    <path class="st3" d="M271,649c9.1-6.1,22.4-11.4,37.2-14.6,36-23,66.2-16.4,71.1-15-50.2-15.1-94.6,18.1-108.2,29.6"/>
    <path class="st8" d="M315.3,633.8c4.3-.7,8.4-1.2,12.4-1.5,2.6-2.1,15.4-12.2,34-12.6,0,0-23.8-1.8-50.1,14.7,1.2-.2,2.5-.5,3.7-.7"/>
    <path class="st10" d="M342.1,632.9c1.8-1.9,12.3-12.2,26.3-11.2,0,0-18.5-3.1-38.4,11,4.3-.2,8.4-.1,12.1.2"/>
    <path class="st3" d="M374.7,609.5h0s-.5,0-.5,0c0,0-.4,0-.4,0h-.3c-.2,0-.3-.1-.3-.2,0,0-.1-.2-.2-.7,0-.4,0-.9,0-1.7v-12.4c0-1.5-.1-2.6-.4-3.5-.3-.9-.8-1.6-1.6-2.3-1.4-1.2-3.3-1.8-5.7-1.8s-4.5.6-6.5,1.7c-1.4.9-2.1,1.6-2.1,2.4s.1.6.4.9c.3.3.6.4,1,.4s.8-.2,1.3-.6c1.7-1.2,3.4-1.9,5.1-1.9s3.4.8,3.9,2.3c.1.5.3,1,.3,1.7,0,.7,0,2.4,0,4.9s0,3.9,0,4.9c0,1-.1,1.7-.3,2.3-.3,1.2-.9,2.1-1.7,2.8-.8.7-1.8,1-3,1s-2.3-.4-3.1-1.2c-.8-.8-1.2-1.9-1.2-3.2s.6-3,1.9-4.3c1.3-1.2,3.1-2.1,5.4-2.5,1-.2,1.5-.6,1.5-1.2s-.1-1.3-1.5-1.3-1,0-1.7.2c-.7.1-1.3.3-1.9.5-.7.2-1.3.4-1.8.7-1.9.9-3.5,2-4.5,3.4-1.1,1.4-1.6,3-1.6,4.6s.2,1.9.6,2.7c.4.8,1,1.6,1.7,2.3.7.6,1.6,1.1,2.6,1.4.9.3,2,.5,3.1.5s2.5-.2,3.5-.7c.7-.3,1.4-.8,2.1-1.4h0c0,1,.6,1.6,1.7,1.6h4c.7,0,1.2-.4,1.2-1.1s-.3-1-.9-1.1"/>
    <path class="st3" d="M418.7,609.4s-.5,0-.5,0c0,0-.4,0-.4,0-.3,0-.5-.1-.5-.2,0,0-.1-.1-.2-.6,0-.4,0-1,0-1.8v-17.8c0-.7,0-1.2-.2-1.5-.1-.2-.4-.6-1-.6h-.5c0,0,0,0,0,0h0s-.3.2-.3.2c0,0-3.7,1.9-3.7,1.9-.7.3-1.1.8-1.1,1.3s.1,1.1,1.5,1.1c.6,0,.8.1.9.2,0,0,.1.2.2.5,0,.4.1,1.2.1,2.2v7c0,2.6-.4,4.6-1.2,5.8-.4.7-1.1,1.3-2,1.8-.9.4-1.9.7-2.8.7-1.7,0-2.8-.7-3.3-2-.2-.5-.3-1-.4-1.6,0-.6-.1-1.6-.1-2.9v-13.6c0-.8,0-1.3-.2-1.6-.2-.4-.5-.6-1-.6s-.6,0-1.1.3l-3.5,1.6c-.7.3-1,.7-1,1.2s.1.7.4.9c.2.2.6.2,1.1.3.6,0,.7.2.8.2,0,0,.2.2.2.9s0,.9,0,.9v11.3c0,1.4.1,2.5.3,3.3.2.9.6,1.6,1.2,2.2.6.6,1.4,1.1,2.4,1.5,1,.4,2,.5,3.2.5s2.9-.3,4.1-.8c.9-.4,1.8-.9,2.6-1.5,0,0,0,0,0,0,0,.6.2,1,.5,1.2.3.2.7.3,1.3.3h4.1c.7,0,1.1-.4,1.1-1.1s-.3-1-.9-1.1"/>
    <path class="st3" d="M439.5,605.8c-.4,0-.8.2-1.2.7-1.8,2.1-4,3.2-6.4,3.2s-2.8-.4-3.9-1.2c-1.1-.8-2-2-2.6-3.6-.6-1.5-.9-3.4-.9-5.5s.3-3.6.9-5.2c.6-1.6,1.4-2.8,2.4-3.6,1-.8,2.1-1.2,3.4-1.2s2.2.4,3.1,1.3c.9.9,1.4,1.9,1.4,3s-.2.9-.6,1.3c-.4.5-1.1,1-2.1,1.6,0,0-6.3,3.7-6.3,3.7-.5.3-.7.5-.9.6-.2.2-.3.5-.3.8,0,.8.5,1.2,1.3,1.2s.8-.2,1.3-.5l9.3-5.5c1-.6,1.6-1.1,1.9-1.5.4-.5.6-1.1.6-1.8,0-1.1-.5-2.4-1.6-3.7-1.7-2.1-4.1-3.1-7-3.1s-3.1.3-4.5,1c-1.4.6-2.7,1.5-3.7,2.7-1,1.1-1.8,2.5-2.4,4.1-.6,1.6-.9,3.2-.9,5s.5,4.5,1.5,6.5c1,1.9,2.4,3.5,4.1,4.6,1.8,1.1,3.7,1.7,5.8,1.7s2.2-.2,3.4-.5c1.1-.3,2.2-.8,3.1-1.3.8-.6,1.4-1.2,2-1.8.6-.7.9-1.3.9-1.8s-.1-.6-.4-.9c-.2-.2-.5-.3-.8-.3"/>
    <path class="st3" d="M465,609.5h0s-.6,0-.6,0c0,0-.5,0-.5,0-.3,0-.5-.2-.5-.2,0,0-.1-.1-.2-.6,0-.4,0-1,0-1.8v-12.4c0-1.5-.1-2.6-.4-3.5-.3-.9-.8-1.6-1.5-2.2-1.2-1.2-3-1.8-5.3-1.8s-4.8.8-6.7,2.4v-.8c0-1.4-.7-1.6-1.2-1.6s-.7.1-1.1.3c0,0-3.5,1.9-3.5,1.9-.8.4-1,.9-1,1.2s0,1,1.2,1.1h.6c.5,0,.5.2.6.3,0,.1.2.6.2,1.8v13.3c0,1.5-.1,2-.2,2.2,0,.1-.2.3-.7.4,0,0-.5,0-.5,0,0,0-.5,0-.5,0-.6,0-.9.5-.9,1.1s.4,1.1,1.1,1.1h7.6c.7,0,1.1-.4,1.1-1.1s-.3-1-.9-1.1c0,0-.6,0-.6,0,0,0-.5,0-.5,0-.4,0-.6-.3-.6-.4,0-.2-.2-.7-.2-2.2v-9c0-1.6.1-2.8.3-3.7.2-.8.5-1.5.9-2.1.5-.6,1.2-1.2,2.1-1.5.9-.4,1.8-.6,2.7-.6s1.5.2,2.1.5c.6.3,1,.7,1.2,1.2.2.4.4,1.5.4,3.9v11.4c0,1.5-.1,2-.2,2.2,0,0-.1.3-.6.4,0,0-.6,0-.6,0-.5,0-.8.2-1,.3-.2.1-.4.4-.4.9s.4,1.1,1.1,1.1h7.5c.7,0,1.2-.4,1.2-1.1s-.3-1-.9-1.1"/>
    <path class="st3" d="M486.1,609.5h0s-.6,0-.6,0c0,0-.4,0-.4,0h-.3c-.2,0-.3-.2-.3-.2,0,0-.1-.2-.2-.7,0-.4,0-1,0-1.7v-12.4c0-1.5-.1-2.6-.4-3.5-.3-.8-.8-1.6-1.6-2.3-1.4-1.2-3.3-1.8-5.7-1.8s-4.5.6-6.5,1.7c-1.4.9-2.1,1.6-2.1,2.4s.1.6.4.9c.2.3.6.4,1,.4s.8-.2,1.3-.6c1.7-1.2,3.4-1.9,5.1-1.9s3.4.8,3.9,2.3c.2.4.3,1,.3,1.7,0,.7,0,2.3,0,4.9s0,4,0,4.9c0,.9-.1,1.7-.3,2.3-.3,1.2-.9,2.1-1.7,2.8-.8.7-1.8,1-3,1s-2.3-.4-3.1-1.2c-.8-.9-1.2-1.9-1.2-3.2s.6-3,1.9-4.3c1.3-1.2,3.1-2.1,5.4-2.5,1-.2,1.5-.6,1.5-1.2s-.1-1.3-1.5-1.3-1,0-1.7.2c-.7.1-1.3.3-1.9.5-.6.2-1.2.4-1.8.7-1.9.9-3.5,2-4.5,3.4-1.1,1.4-1.6,3-1.6,4.6s.2,1.9.6,2.7c.4.8,1,1.6,1.7,2.3.7.6,1.6,1.1,2.6,1.4,1,.3,2,.5,3.1.5s2.5-.2,3.5-.7c.7-.3,1.4-.8,2.1-1.4h0c0,1,.6,1.6,1.7,1.6h4c.7,0,1.2-.4,1.2-1.1s-.3-1-.9-1.1"/>
    <path class="st3" d="M349.6,593.1c-1.4-1.3-3.3-2.8-5.7-4.4l-2.7-1.9c-2-1.4-3.4-2.5-4.1-3.4-.7-.9-1-1.9-1-3.1s.2-2,.7-2.8c.5-.8,1.2-1.4,2-1.9.9-.4,1.9-.7,3-.7s2.4.2,3.5.7c1.1.5,2.1,1.2,2.8,2,.4.4,1,1.2,1.7,2.3.3.6.8.7,1.2.7s.6-.1.8-.4c.2-.2.3-.5.3-.8v-.3c0,0,0,.1,0,.1v-.2s0-.3,0-.3c0,0-1-5.1-1-5.1-.2-1.1-.7-1.7-1.4-1.7s-.7.1-.9.4c0,0-.3.3-.3.3-.2.2-.4.3-.6.3s-.6,0-1-.2c0,0-1.6-.4-1.6-.4-1.4-.3-2.8-.5-4.1-.5-1.9,0-3.6.4-5.1,1.1-1.5.7-2.7,1.7-3.5,3.1-.8,1.3-1.2,2.8-1.2,4.5s.2,2.1.6,3.2c.4,1.1,1,2.1,1.8,2.9.7.7,1.3,1.4,2,1.9.6.5,1.9,1.4,4.1,2.9,2.6,1.8,4.4,3.1,5.5,4,2.3,1.9,3.4,4.1,3.4,6.4s-.7,3.8-2,5.1c-1.3,1.3-3,2-5.1,2-3.5,0-6.5-1.8-9-5.3-.5-.7-.9-1-1.3-1-.8,0-1.2.5-1.2,1.3s0,.5.1.8c0,0,1.3,5.6,1.3,5.6h0c.2.6.3.9.4,1.1.2.2.5.4.9.4s.9-.2,1.1-.7l.2-.4c.2-.3.3-.3.4-.3,0,0,.7.2.9.2,2.2.7,4.3,1.1,6.1,1.1s3.4-.3,4.8-.8c1.5-.5,2.7-1.3,3.7-2.2,1-.9,1.8-2.1,2.4-3.4.6-1.3.8-2.8.8-4.4s-.3-3.1-.9-4.4c-.6-1.3-1.6-2.6-3-4"/>
    <path class="st3" d="M392.2,607.7c-1.2-1.1-2.8-2.2-4.8-3.4-2.1-1.2-3.7-2.3-4.9-3.3-1.2-.9-2-1.8-2.4-2.7-.4-.8-.7-1.8-.7-2.9s.2-2,.7-2.8c.5-.9,1.2-1.5,2-2,.9-.5,1.9-.7,3-.7,1.7,0,3.1.5,4.1,1.5,1,1,1.5,2.4,1.5,4.1s-1,4-3.1,5l-.8.4c-.7.3-.8.8-.8,1.2s.2,1.2,1.5,1.2,2.4-.4,3.5-1.1c1.1-.7,2-1.7,2.6-2.9.6-1.2,1-2.5,1-3.8s-.2-2.2-.6-3.1c-.4-.8-.9-1.4-1.4-2,1.1-.8,1.8-1.8,1.8-2.9s-.2-1-.5-1.4c-.4-.4-.9-.6-1.4-.6s-.9.2-1.1.4c-.2.3-.4.7-.6,1.3-.2.8-.6.8-.8.8-.3,0-.8,0-1.6-.3-1-.3-2.1-.5-3.4-.5-1.9,0-3.5.4-5,1.1-1.5.8-2.6,1.8-3.4,3.2-.8,1.4-1.2,3-1.2,4.7s.3,3,.8,4.2c.5,1.2,1.4,2.4,2.7,3.5,1.2,1.1,2.9,2.3,5,3.5,1.1.7,2.1,1.3,2.9,1.8h0c2.3,1.5,2.9,2.5,3.4,3.5.6,1,1.3,3.2.2,5-1.1,1.9-1.8,2.3-4.9,2.4-2.5,0-5.3-.6-6.4-.8,1.4.4,6,1.7,9.4,3.7,0,0,6.6-.8,6.9-8.1,0,0,.2-4.4-3.1-7.1"/>
    <path class="st3" d="M362.2,575.4c0-.2,0-.3,0-.4,0-.2-.1-.3-.3-.3h-.2c-.2,0-.4-.2-.4-.4,0-.3.2-.4.6-.4h2.1c.3,0,.5.1.5.3s-.2.4-.5.4c-.4,0-.5.1-.7.7l-2.6,7c-.2.5-.3.6-.7.6s-.5-.1-.7-.5l-2.9-7.1c-.2-.6-.3-.7-.7-.7-.3,0-.4-.1-.4-.4s.2-.4.5-.4h2.9c.4,0,.5.1.5.4s-.1.3-.4.3c-.4,0-.5,0-.5.3s0,.2.1.5l1.9,5,1.9-5.1Z"/>
    <path class="st3" d="M367,577.5c0-.3,0-.4-.3-.4s0,0-.4,0l-1.5.6c-.4.1-.5.2-.5.4s.1.3.5.4c.4,0,.4.1.4.7v1.8c0,1,0,1.1-.4,1.1h-.1c-.3,0-.4.2-.4.4s.1.4.6.4h2.4c.5,0,.6,0,.6-.4s-.1-.3-.4-.3h-.2c-.3,0-.4-.2-.4-1.2v-3.5ZM365,575.2c0,.6.5,1,1.1,1s1.1-.4,1.1-1-.5-1-1.1-1-1.1.5-1.1,1"/>
    <path class="st3" d="M371.2,581c0,1,0,1.1.4,1.1h.2c.3,0,.4.2.4.4s-.1.4-.6.4h-2.4c-.5,0-.6,0-.6-.4s.1-.3.4-.3h.2c.3,0,.3-.2.3-1.2v-5.3c0-.3,0-.4-.4-.4-.3,0-.5-.1-.5-.3s0-.3.3-.4l1.7-.7c.2,0,.2,0,.3,0,.2,0,.3.1.3.5v6.8Z"/>
    <path class="st3" d="M375.3,581c0,1,0,1.1.4,1.1h.2c.3,0,.4.2.4.4s-.1.4-.6.4h-2.4c-.5,0-.6,0-.6-.4s0-.3.4-.3h.2c.3,0,.4-.2.4-1.2v-5.3c0-.3-.1-.4-.4-.4-.3,0-.5-.1-.5-.3s0-.3.3-.4l1.7-.7c.2,0,.2,0,.3,0,.2,0,.3.1.3.5v6.8Z"/>
    <path class="st3" d="M381.9,579.6c.4-.2.5-.4.5-.7,0-.9-1.1-1.7-2.4-1.7s-3.2,1.2-3.2,3,1.2,2.9,3.1,2.9,2.5-.6,2.5-1.1-.2-.4-.4-.4-.2,0-.4.1c-.6.3-1,.4-1.5.4-1,0-1.5-.7-1.5-2s.5-2.1,1.3-2.1.8.4.8.8,0,.4-.5.7l-.9.5c-.1,0-.2.2-.2.3,0,.2.2.4.4.4s.2,0,.4-.1l2-1.1Z"/>
    <path class="st3" d="M388.5,583.1c-1.6,0-2.7-1.2-2.7-3s1-2.9,2.6-2.9,1.2.2,1.2.6-.1.4-.3.4,0,0,0,0h-.2c0,0-.1,0-.2,0-.7,0-1,.7-1,2s.4,2.1,1.2,2.1.8-.2.9-.5c0-.2,0-.5,0-1v-4.4c0-.7,0-.7-.5-.8-.3,0-.4-.1-.4-.3s0-.3.3-.4l1.8-.7c.1,0,.2,0,.3,0,.2,0,.3.2.3.6v6.6c0,1,0,1.1.4,1.1h.1c.3,0,.4.2.4.4s-.1.4-.6.4h-1.6c-.2,0-.3-.1-.3-.3v-.2c-.5.5-.9.7-1.6.7"/>
    <path class="st3" d="M396.2,580.6c-.2.1-.3.1-.4.1-.2,0-.5-.2-.5-.4s0-.2.2-.3l.9-.5c.5-.3.5-.4.5-.7,0-.5-.3-.8-.8-.8-.7,0-1.3.8-1.3,2.1s.6,2,1.5,2,.9-.1,1.5-.4c.2-.1.3-.1.4-.1.2,0,.4.2.4.4,0,.5-1.3,1.1-2.5,1.1-1.9,0-3.1-1.2-3.1-2.9s1.3-3,3.2-3,2.4.8,2.4,1.7-.1.5-.5.7l-2,1Z"/>
    <path class="st3" d="M509.4,586.6h-6c-1.3,0-1.5.8-1.5,1.2,0,.6.3.8.5.9.2.1.6.2,1.2.2,1.1,0,1.1.6,1.1.8s-.2,1.1-.9,3c0,0-3.4,8.9-4.5,12-.8-1.8-5.3-12.9-5.3-12.9-.6-1.5-.7-2.1-.7-2.2s0-.5,1-.6c.7,0,1.1-.1,1.3-.2.2-.1.5-.4.5-.9s-.2-1.2-1.6-1.2h-7.2c-1.5,0-1.7.8-1.7,1.2s.2.8.4.9c.1,0,.4.2,1.3.3.4,0,.8.2,1,.4.2.2.5.7,1.1,2.2,0,0,7,16.7,7.9,18.7-.7,1.5-1.5,3.2-2.6,5.1-.7,1.4-1.3,2.3-1.7,2.9l-1.9,2.8c-.3.4-.4.7-.4,1,0,.5.3.7.4.8.2.1.5.2.9.2h2.1c.4,0,1-.2,1.4-1,0,0,.3-.6.3-.6,0,0,11.5-29.9,11.5-29.9.5-1.2.8-1.7,1-2,.2-.3.6-.5,1.1-.6,0,0,.7-.2.7-.2.6-.1,1-.5,1-1.1s-.1-1.1-1.5-1.1"/>
  </g>
</svg>