<?xml version="1.0" encoding="UTF-8"?>
<svg id="Calque_1" xmlns="http://www.w3.org/2000/svg" xmlns:xlink="http://www.w3.org/1999/xlink" version="1.1" viewBox="0 0 242.4 117.7">
  <!-- Generator: Adobe Illustrator 29.2.1, SVG Export Plug-In . SVG Version: 2.1.0 Build 116)  -->
  <defs>
    <style>
      .st0 {
        fill: #34a63a;
      }

      .st1 {
        fill: url(#Dégradé_sans_nom_8);
      }

      .st2 {
        fill: #003c7a;
      }

      .st3 {
        fill: #fff;
      }

      .st4 {
        fill: #232d84;
      }

      .st5 {
        fill: #009fe3;
      }
    </style>
    <linearGradient id="Dégradé_sans_nom_8" data-name="Dégradé sans nom 8" x1="144.9" y1="94.7" x2="88.3" y2="94.7" gradientUnits="userSpaceOnUse">
      <stop offset="0" stop-color="#fff" stop-opacity="0"/>
      <stop offset="1" stop-color="#009fe3" stop-opacity=".5"/>
    </linearGradient>
  </defs>
  <path class="st1" d="M94.7,88.3h50.2v12.8h-50.2c-3.5,0-6.4-2.9-6.4-6.4h0c0-3.5,2.9-6.4,6.4-6.4Z"/>
  <g>
    <path class="st0" d="M39.9,61.6c11.7,0,21.2-9.5,21.2-21.2s-9.5-21.2-21.2-21.2-21.2,9.5-21.2,21.2,9.5,21.2,21.2,21.2"/>
    <path class="st5" d="M78.2,61.5c11.7,0,21.2-9.5,21.2-21.2s-9.5-21.2-21.2-21.2-21.2,9.5-21.2,21.2,9.5,21.2,21.2,21.2"/>
    <path class="st2" d="M116.2,61.6c11.7,0,21.2-9.5,21.2-21.2s-9.5-21.2-21.2-21.2-21.2,9.5-21.2,21.2,9.5,21.2,21.2,21.2"/>
    <path class="st2" d="M223.3,42.8c1.3,0,2.4-1.1,2.4-2.4s-1.1-2.4-2.4-2.4-2.4,1.1-2.4,2.4,1.1,2.4,2.4,2.4"/>
    <path class="st2" d="M216.8,42.8c1.3,0,2.4-1.1,2.4-2.4s-1.1-2.4-2.4-2.4-2.4,1.1-2.4,2.4,1.1,2.4,2.4,2.4"/>
    <path class="st2" d="M210.3,42.8c1.3,0,2.4-1.1,2.4-2.4s-1.1-2.4-2.4-2.4-2.4,1.1-2.4,2.4,1.1,2.4,2.4,2.4"/>
    <path class="st2" d="M203.8,42.8c1.3,0,2.4-1.1,2.4-2.4s-1.1-2.4-2.4-2.4-2.4,1.1-2.4,2.4,1.1,2.4,2.4,2.4"/>
    <path class="st5" d="M197.3,42.8c1.3,0,2.4-1.1,2.4-2.4s-1.1-2.4-2.4-2.4-2.4,1.1-2.4,2.4,1.1,2.4,2.4,2.4"/>
    <path class="st2" d="M190.8,42.8c1.3,0,2.4-1.1,2.4-2.4s-1.1-2.4-2.4-2.4-2.4,1.1-2.4,2.4,1.1,2.4,2.4,2.4"/>
    <path class="st0" d="M184.3,42.8c1.3,0,2.4-1.1,2.4-2.4s-1.1-2.4-2.4-2.4-2.4,1.1-2.4,2.4,1.1,2.4,2.4,2.4"/>
    <path class="st2" d="M178,42.8c1.3,0,2.4-1.1,2.4-2.4s-1.1-2.4-2.4-2.4-2.4,1.1-2.4,2.4,1.1,2.4,2.4,2.4"/>
    <path class="st5" d="M170,45.2c1.3,0,2.4-1.1,2.4-2.4s-1.1-2.4-2.4-2.4-2.4,1.1-2.4,2.4,1.1,2.4,2.4,2.4"/>
    <path class="st2" d="M165.2,38.3c1.3,0,2.4-1.1,2.4-2.4s-1.1-2.4-2.4-2.4-2.4,1.1-2.4,2.4,1.1,2.4,2.4,2.4"/>
    <path class="st5" d="M158.1,44.2c1.3,0,2.4-1.1,2.4-2.4s-1.1-2.4-2.4-2.4-2.4,1.1-2.4,2.4,1.1,2.4,2.4,2.4"/>
    <path class="st2" d="M148.9,41c1.3,0,2.4-1.1,2.4-2.4s-1.1-2.4-2.4-2.4-2.4,1.1-2.4,2.4,1.1,2.4,2.4,2.4"/>
    <path class="st2" d="M216.8,36.8c1.3,0,2.4-1.1,2.4-2.4s-1.1-2.4-2.4-2.4-2.4,1.1-2.4,2.4,1.1,2.4,2.4,2.4"/>
    <path class="st2" d="M210.3,36.8c1.3,0,2.4-1.1,2.4-2.4s-1.1-2.4-2.4-2.4-2.4,1.1-2.4,2.4,1.1,2.4,2.4,2.4"/>
    <path class="st2" d="M203.8,36.8c1.3,0,2.4-1.1,2.4-2.4s-1.1-2.4-2.4-2.4-2.4,1.1-2.4,2.4,1.1,2.4,2.4,2.4"/>
    <path class="st2" d="M197.3,36.8c1.3,0,2.4-1.1,2.4-2.4s-1.1-2.4-2.4-2.4-2.4,1.1-2.4,2.4,1.1,2.4,2.4,2.4"/>
    <path class="st0" d="M190.8,36.8c1.3,0,2.4-1.1,2.4-2.4s-1.1-2.4-2.4-2.4-2.4,1.1-2.4,2.4,1.1,2.4,2.4,2.4"/>
    <path class="st5" d="M178,36.8c1.3,0,2.4-1.1,2.4-2.4s-1.1-2.4-2.4-2.4-2.4,1.1-2.4,2.4,1.1,2.4,2.4,2.4"/>
    <path class="st4" d="M171.7,36.8c1.3,0,2.4-1.1,2.4-2.4s-1.1-2.4-2.4-2.4-2.4,1.1-2.4,2.4,1.1,2.4,2.4,2.4"/>
    <path class="st0" d="M158.1,34.5c1.3,0,2.4-1.1,2.4-2.4s-1.1-2.4-2.4-2.4-2.4,1.1-2.4,2.4,1.1,2.4,2.4,2.4"/>
    <path class="st2" d="M210.3,30.9c1.3,0,2.4-1.1,2.4-2.4s-1.1-2.4-2.4-2.4-2.4,1.1-2.4,2.4,1.1,2.4,2.4,2.4"/>
    <path class="st2" d="M203.8,30.9c1.3,0,2.4-1.1,2.4-2.4s-1.1-2.4-2.4-2.4-2.4,1.1-2.4,2.4,1.1,2.4,2.4,2.4"/>
    <path class="st2" d="M197.3,30.9c1.3,0,2.4-1.1,2.4-2.4s-1.1-2.4-2.4-2.4-2.4,1.1-2.4,2.4,1.1,2.4,2.4,2.4"/>
    <path class="st2" d="M190.8,30.9c1.3,0,2.4-1.1,2.4-2.4s-1.1-2.4-2.4-2.4-2.4,1.1-2.4,2.4,1.1,2.4,2.4,2.4"/>
    <path class="st0" d="M184.3,30.9c1.3,0,2.4-1.1,2.4-2.4s-1.1-2.4-2.4-2.4-2.4,1.1-2.4,2.4,1.1,2.4,2.4,2.4"/>
    <path class="st2" d="M178,30.9c1.3,0,2.4-1.1,2.4-2.4s-1.1-2.4-2.4-2.4-2.4,1.1-2.4,2.4,1.1,2.4,2.4,2.4"/>
    <path class="st2" d="M167.6,27.8c1.3,0,2.4-1.1,2.4-2.4s-1.1-2.4-2.4-2.4-2.4,1.1-2.4,2.4,1.1,2.4,2.4,2.4"/>
    <path class="st5" d="M151.3,26c1.3,0,2.4-1.1,2.4-2.4s-1.1-2.4-2.4-2.4-2.4,1.1-2.4,2.4,1.1,2.4,2.4,2.4"/>
    <path class="st2" d="M203.8,24.9c1.3,0,2.4-1.1,2.4-2.4s-1.1-2.4-2.4-2.4-2.4,1.1-2.4,2.4,1.1,2.4,2.4,2.4"/>
    <path class="st2" d="M197.3,24.9c1.3,0,2.4-1.1,2.4-2.4s-1.1-2.4-2.4-2.4-2.4,1.1-2.4,2.4,1.1,2.4,2.4,2.4"/>
    <path class="st2" d="M197.3,19c1.3,0,2.4-1.1,2.4-2.4s-1.1-2.4-2.4-2.4-2.4,1.1-2.4,2.4,1.1,2.4,2.4,2.4"/>
    <path class="st2" d="M216.8,48.7c1.3,0,2.4-1.1,2.4-2.4s-1.1-2.4-2.4-2.4-2.4,1.1-2.4,2.4,1.1,2.4,2.4,2.4"/>
    <path class="st2" d="M210.3,48.7c1.3,0,2.4-1.1,2.4-2.4s-1.1-2.4-2.4-2.4-2.4,1.1-2.4,2.4,1.1,2.4,2.4,2.4"/>
    <path class="st2" d="M203.8,48.7c1.3,0,2.4-1.1,2.4-2.4s-1.1-2.4-2.4-2.4-2.4,1.1-2.4,2.4,1.1,2.4,2.4,2.4"/>
    <path class="st2" d="M197.3,48.7c1.3,0,2.4-1.1,2.4-2.4s-1.1-2.4-2.4-2.4-2.4,1.1-2.4,2.4,1.1,2.4,2.4,2.4"/>
    <path class="st5" d="M184.3,48.7c1.3,0,2.4-1.1,2.4-2.4s-1.1-2.4-2.4-2.4-2.4,1.1-2.4,2.4,1.1,2.4,2.4,2.4"/>
    <path class="st0" d="M178,48.7c1.3,0,2.4-1.1,2.4-2.4s-1.1-2.4-2.4-2.4-2.4,1.1-2.4,2.4,1.1,2.4,2.4,2.4"/>
    <path class="st2" d="M165.1,51.8c1.3,0,2.4-1.1,2.4-2.4s-1.1-2.4-2.4-2.4-2.4,1.1-2.4,2.4,1.1,2.4,2.4,2.4"/>
    <path class="st5" d="M144,31.9c1.3,0,2.4-1.1,2.4-2.4s-1.1-2.4-2.4-2.4-2.4,1.1-2.4,2.4,1.1,2.4,2.4,2.4"/>
    <path class="st2" d="M144,51.1c1.3,0,2.4-1.1,2.4-2.4s-1.1-2.4-2.4-2.4-2.4,1.1-2.4,2.4,1.1,2.4,2.4,2.4"/>
    <path class="st2" d="M210.3,54.6c1.3,0,2.4-1.1,2.4-2.4s-1.1-2.4-2.4-2.4-2.4,1.1-2.4,2.4,1.1,2.4,2.4,2.4"/>
    <path class="st2" d="M203.8,54.6c1.3,0,2.4-1.1,2.4-2.4s-1.1-2.4-2.4-2.4-2.4,1.1-2.4,2.4,1.1,2.4,2.4,2.4"/>
    <path class="st2" d="M197.3,54.6c1.3,0,2.4-1.1,2.4-2.4s-1.1-2.4-2.4-2.4-2.4,1.1-2.4,2.4,1.1,2.4,2.4,2.4"/>
    <path class="st5" d="M190.8,54.6c1.3,0,2.4-1.1,2.4-2.4s-1.1-2.4-2.4-2.4-2.4,1.1-2.4,2.4,1.1,2.4,2.4,2.4"/>
    <path class="st2" d="M184.3,54.6c1.3,0,2.4-1.1,2.4-2.4s-1.1-2.4-2.4-2.4-2.4,1.1-2.4,2.4,1.1,2.4,2.4,2.4"/>
    <path class="st2" d="M178,54.6c1.3,0,2.4-1.1,2.4-2.4s-1.1-2.4-2.4-2.4-2.4,1.1-2.4,2.4,1.1,2.4,2.4,2.4"/>
    <path class="st5" d="M171.7,57.1c1.3,0,2.4-1.1,2.4-2.4s-1.1-2.4-2.4-2.4-2.4,1.1-2.4,2.4,1.1,2.4,2.4,2.4"/>
    <path class="st5" d="M155.6,56c1.3,0,2.4-1.1,2.4-2.4s-1.1-2.4-2.4-2.4-2.4,1.1-2.4,2.4,1.1,2.4,2.4,2.4"/>
    <path class="st0" d="M140.9,60.6c1.3,0,2.4-1.1,2.4-2.4s-1.1-2.4-2.4-2.4-2.4,1.1-2.4,2.4,1.1,2.4,2.4,2.4"/>
    <path class="st2" d="M203.8,60.6c1.3,0,2.4-1.1,2.4-2.4s-1.1-2.4-2.4-2.4-2.4,1.1-2.4,2.4,1.1,2.4,2.4,2.4"/>
    <path class="st2" d="M197.3,60.6c1.3,0,2.4-1.1,2.4-2.4s-1.1-2.4-2.4-2.4-2.4,1.1-2.4,2.4,1.1,2.4,2.4,2.4"/>
    <path class="st2" d="M197.3,66.5c1.3,0,2.4-1.1,2.4-2.4s-1.1-2.4-2.4-2.4-2.4,1.1-2.4,2.4,1.1,2.4,2.4,2.4"/>
    <path class="st0" d="M140.9,21.6c1.3,0,2.4-1.1,2.4-2.4s-1.1-2.4-2.4-2.4-2.4,1.1-2.4,2.4,1.1,2.4,2.4,2.4"/>
    <path class="st2" d="M111,74.6h-.7v6h.6v-5s3.5,5,3.5,5h.6v-6h-.6v5s-3.5-5-3.5-5ZM103.8,77.5c0-1.4,1-2.5,2.4-2.5s2.4,1.1,2.4,2.5-1,2.5-2.4,2.5-2.4-1.1-2.4-2.5h0ZM103.1,77.6c0,1.7,1.3,3.1,3.1,3.1s3.1-1.3,3.1-3.1-1.4-3.1-3.1-3.1-3.1,1.3-3.1,3.1h0ZM101.5,80.5h.7v-6h-.7v6ZM98.6,80.5h.7v-5.4h1.5v-.6h-3.6v.6h1.5v5.4ZM96,78.3h-2.4l1.2-3,1.2,3ZM93.4,78.8h2.8l.7,1.7h.7l-2.5-6h-.6l-2.5,6h.7l.7-1.7ZM87.1,74.6h-.7v6h.6v-5s3.5,5,3.5,5h.6v-6h-.6v5s-3.5-5-3.5-5ZM84.5,80.5h.7v-6h-.7v6ZM81.6,80.5h.7v-5.4h1.5v-.6h-3.6v.6h1.5v5.4ZM76,78.8c0,1.1.9,1.8,1.9,1.8s1.8-.8,1.8-1.7-.9-1.4-1.4-1.6c-.9-.3-1.5-.5-1.5-1.2,0-.6.5-1,1.1-1s1,.6,1.1,1h.7c0-1.1-.9-1.5-1.7-1.5s-1.8.6-1.8,1.6c0,1.1,1,1.4,1.5,1.6.7.2,1.4.4,1.4,1.2s-.6,1.1-1.2,1.1-1.1-.2-1.2-1.2h-.7ZM71.9,80.5h3.3v-.6h-2.6v-2.1h2.6v-.6h-2.6v-2.1h2.6v-.6h-3.3v6ZM66.7,75.1h1.2c.8,0,1.4.3,1.7.7.4.4.6,1,.6,1.7,0,1.4-.8,2.4-2.3,2.4h-1.2v-4.8ZM66,80.5h1.8c2,0,3-1.2,3-3s-.2-1.5-.7-2.1c-.6-.7-1.5-.9-2.3-.9h-1.8v6ZM63.2,78.5h2.2v-.6h-2.2v.6ZM59.3,80.5h3.3v-.6h-2.6v-2.1h2.6v-.6h-2.6v-2.1h2.6v-.6h-3.3v6ZM53.9,74.6h-.7v6h.6v-5s3.5,5,3.5,5h.6v-6h-.6v5s-3.5-5-3.5-5ZM51.3,80.5h.7v-6h-.7v6ZM50,76.1c-.5-1-1.6-1.6-2.8-1.6-1.7,0-3.1,1.3-3.1,3.1s1.4,3.1,3.1,3.1,2.4-.7,2.9-1.8c.2-.4.3-.8.3-1.1h-3.7v.5h3c0,.5-.4.9-.8,1.2-.4.3-1,.5-1.6.5-1.3,0-2.4-1-2.4-2.5s1.1-2.5,2.4-2.5,1,.2,1.4.4c.3.2.5.4.7.6h.8ZM42.4,80.5h.7v-6h-.7v6ZM37.6,80.5h.7v-5.4h.9c.5,0,.9,0,1.2.2.4.2.6.7.6,1.2s-.1.8-.5,1.1c-.3.3-.9.3-1.3.3h-.2l1.7,2.6h.7l-1.5-2.2c.5,0,1-.2,1.3-.7.2-.3.4-.8.4-1.2,0-.7-.3-1.3-.8-1.6-.3-.2-.7-.3-1.7-.3h-1.6v6ZM31.1,77.5c0-1.4,1-2.5,2.4-2.5s2.4,1.1,2.4,2.5-1,2.5-2.4,2.5-2.4-1.1-2.4-2.5h0ZM30.4,77.6c0,1.7,1.3,3.1,3.1,3.1s3.1-1.3,3.1-3.1-1.4-3.1-3.1-3.1-3.1,1.3-3.1,3.1h0Z"/>
    <path class="st2" d="M61.8,72.5h3.3v-.6h-2.6v-2.1h2.6v-.6h-2.6v-2.1h2.6v-.6h-3.3v6ZM58.9,72.5h.7v-5.4h1.5v-.6h-3.6v.6h1.5v5.4ZM55.4,64.9h-.4l-1.4,1.1h.7l1-.7,1,.7h.7l-1.4-1.1ZM53.6,72.5h3.3v-.6h-2.6v-2.1h2.6v-.6h-2.6v-2.1h2.6v-.6h-3.3v6ZM48.3,66.5v3.8c0,.7,0,1.3.7,1.8.4.3.9.4,1.3.4s1-.2,1.3-.4c.6-.5.7-1.1.7-1.8v-3.8h-.7v3.8c0,.5,0,.8-.3,1.2-.2.3-.6.5-1,.5s-.8-.2-1-.5c-.3-.4-.3-.7-.3-1.2v-3.8h-.7ZM44.1,72c-.5,0-1.7-.2-2.2-1.4.3,0,.5-.2,1-.2s1.1.2,1.7.5c0,0,.7.5.8.7-.2.2-.7.4-1.3.4h0ZM44.1,67c1.4,0,2.5,1,2.5,2.5s-.2,1.3-.7,1.7c-.8-.6-.9-.8-1.2-.9-.5-.3-1-.4-1.6-.4s-.9.1-1.2.2c0-.2,0-.4,0-.7,0-1.3,1.1-2.3,2.4-2.3h0ZM47.7,72c-.6,0-.9-.2-1.3-.4.3-.3.8-.9.8-2.1,0-1.7-1.3-3.1-3.1-3.1s-3.1,1.4-3.1,3.1,1.2,3.1,3.1,3.1,1.4-.3,1.8-.6c.3.2.6.4,1.3.5.1,0,.3,0,.5,0v-.6ZM35.8,66.5h-.7v6h.6v-5s3.5,5,3.5,5h.6v-6h-.6v5s-3.5-5-3.5-5ZM30.7,72.5h3.3v-.6h-2.6v-2.1h2.6v-.6h-2.6v-2.1h2.6v-.6h-3.3v6Z"/>
    <path class="st2" d="M134,97.7h3.3v-.6h-2.6v-2.1h2.6v-.6h-2.6v-2.1h2.6v-.6h-3.3v6ZM130.4,97.7h2.9v-.6h-2.3v-5.4h-.7v6ZM128,95.5h-2.4l1.2-3,1.2,3ZM125.4,96h2.8l.7,1.7h.7l-2.5-6h-.6l-2.5,6h.7l.7-1.7ZM119.2,91.7h-.7v6h.6v-5s3.5,5,3.5,5h.6v-6h-.6v5s-3.5-5-3.5-5ZM111.9,94.7c0-1.4,1-2.5,2.4-2.5s2.4,1.1,2.4,2.5-1,2.5-2.4,2.5-2.4-1.1-2.4-2.5h0ZM111.3,94.7c0,1.7,1.3,3.1,3.1,3.1s3.1-1.3,3.1-3.1-1.4-3.1-3.1-3.1-3.1,1.3-3.1,3.1h0ZM109.6,97.7h.7v-6h-.7v6ZM106.7,97.7h.7v-5.4h1.5v-.6h-3.6v.6h1.5v5.4ZM104.1,95.5h-2.4l1.2-3,1.2,3ZM101.5,96h2.8l.7,1.7h.7l-2.5-6h-.6l-2.5,6h.7l.7-1.7ZM95.2,91.7h-.7v6h.6v-5s3.5,5,3.5,5h.6v-6h-.6v5s-3.5-5-3.5-5Z"/>
    <path class="st3" d="M30.9,51.5h17.9c.3,0,.5-.2.5-.5v-1c0-.3-.2-.5-.5-.5h-16.4v-8.5h11.6c.3,0,.5-.2.5-.5v-1c0-.3-.2-.5-.5-.5h-11.6v-7.9h16.4c.3,0,.5-.2.5-.5v-1c0-.3-.2-.5-.5-.5h-17.9c-.3,0-.5.2-.5.5v21.4c0,.3.2.5.5.5"/>
    <path class="st3" d="M74.3,49.5c-4.1,0-5.5-1.4-5.5-5.7v-7c0-4.3,1.4-5.7,5.5-5.7h7.8c4.1,0,5.5,1.4,5.5,5.7v7c0,4.3-1.4,5.7-5.5,5.7h-7.8ZM74.3,51.5h7.8c5.6,0,7.5-2.6,7.5-7.7v-6.9c0-5.1-1.9-7.7-7.5-7.7h-7.8c-5.6,0-7.5,2.6-7.5,7.7v6.9c0,5.1,1.9,7.7,7.5,7.7"/>
    <path class="st3" d="M108.3,49.6v-18.4h12.1c4.3,0,5.6,1.4,5.6,6.4v5.7c0,4.9-1.3,6.3-5.6,6.3h-12.1ZM106.8,51.5h13.7c5.5,0,7.5-2.3,7.5-8.2v-5.7c0-5.9-1.9-8.4-7.5-8.4h-13.7c-.3,0-.5.2-.5.5v21.4c0,.3.2.5.5.5"/>
  </g>
</svg>